<?xml version="1.0" standalone="no"?>
<!DOCTYPE svg PUBLIC "-//W3C//DTD SVG 20010904//EN"
 "http://www.w3.org/TR/2001/REC-SVG-20010904/DTD/svg10.dtd">
<svg version="1.0" xmlns="http://www.w3.org/2000/svg"
 width="500.000000pt" height="500.000000pt" viewBox="0 0 500.000000 500.000000"
 preserveAspectRatio="xMidYMid meet">

<g transform="translate(0.000000,500.000000) scale(0.100000,-0.100000)"
fill="#000000" stroke="none">
<path d="M1737 2957 c-20 -8 -25 -15 -20 -27 4 -8 9 -145 11 -303 2 -238 0
-293 -12 -318 l-14 -29 54 0 c53 0 53 0 44 26 -6 14 -10 57 -10 97 0 59 4 75
23 96 l22 26 -22 -19 -23 -19 0 241 c0 260 2 251 -53 229z"/>
<path d="M3130 2895 c-17 -20 -5 -61 19 -68 25 -6 61 19 61 42 0 38 -55 56
-80 26z"/>
<path d="M2390 2742 c47 -11 57 -18 77 -55 14 -26 18 -67 21 -219 l4 -188 40
0 c35 0 39 2 32 18 -5 9 -11 91 -14 182 -4 131 -9 172 -23 197 -21 40 -62 62
-124 68 -40 4 -42 3 -13 -3z"/>
<path d="M2045 2729 c4 -5 -1 -20 -11 -32 l-19 -22 25 22 c14 12 36 26 50 32
23 9 22 10 -13 10 -25 1 -36 -3 -32 -10z"/>
<path d="M2685 2698 c-9 -24 -20 -50 -23 -58 -3 -8 10 3 28 24 19 22 53 47 75
57 l40 19 -51 0 c-52 0 -52 0 -69 -42z"/>
<path d="M2955 2730 c7 -11 -263 -372 -313 -417 l-35 -33 211 0 c117 0 212 2
212 5 0 2 9 28 20 57 l21 53 -27 -33 c-45 -57 -89 -72 -209 -72 -58 0 -105 3
-105 7 0 11 261 353 306 400 l41 43 -64 0 c-38 0 -62 -4 -58 -10z"/>
<path d="M3152 2725 c-28 -12 -32 -17 -22 -34 13 -25 13 -350 0 -385 -10 -26
-9 -26 46 -26 51 0 55 1 43 17 -11 12 -15 67 -17 230 -2 117 -6 213 -10 213
-4 -1 -22 -7 -40 -15z"/>
<path d="M2278 2714 c-15 -8 -35 -28 -43 -44 l-16 -30 48 1 c35 1 42 3 24 8
-35 9 -37 27 -5 56 31 29 30 30 -8 9z"/>
<path d="M1920 2598 c-41 -39 -67 -65 -57 -57 16 11 20 11 28 -1 59 -96 121
-211 126 -232 5 -26 9 -28 60 -28 l54 0 -24 33 c-28 38 -154 246 -163 271 -5
12 4 28 27 52 56 57 28 37 -51 -38z"/>
<path d="M2353 2603 c9 -2 23 -2 30 0 6 3 -1 5 -18 5 -16 0 -22 -2 -12 -5z"/>
<path d="M2256 2580 c-52 -26 -74 -47 -97 -92 -37 -72 -18 -163 41 -193 65
-34 144 -10 190 57 l23 33 -37 -35 c-69 -65 -154 -38 -172 55 -14 75 24 152
91 181 16 7 23 13 15 13 -8 0 -33 -9 -54 -19z"/>
<path d="M2107 2133 c-4 -3 -7 -21 -7 -40 0 -30 3 -33 28 -32 20 1 22 3 6 6
-15 3 -21 12 -21 33 0 21 6 30 21 33 l21 4 -21 2 c-11 0 -24 -2 -27 -6z"/>
<path d="M2207 2133 c-13 -13 -7 -32 13 -38 27 -9 25 -25 -2 -26 -19 -1 -20
-2 -4 -6 10 -3 23 0 30 7 8 9 6 16 -11 27 -28 19 -30 37 -3 30 11 -3 18 -1 14
4 -6 11 -28 12 -37 2z"/>
<path d="M2298 2133 c6 -2 13 -19 13 -36 2 -27 2 -28 6 -7 2 14 12 31 21 38
13 10 11 12 -19 11 -19 0 -28 -3 -21 -6z"/>
<path d="M2400 2099 c0 -38 1 -40 28 -37 47 5 39 78 -9 78 -16 0 -19 -8 -19
-41z m45 1 c0 -16 -6 -26 -17 -28 -14 -3 -18 3 -18 28 0 25 4 31 18 28 11 -2
17 -12 17 -28z"/>
<path d="M2575 2130 c-3 -5 0 -7 8 -4 25 9 28 -12 6 -40 l-20 -26 28 1 c17 1
21 3 10 6 -15 4 -16 7 -3 25 8 11 12 27 9 34 -6 16 -29 19 -38 4z"/>
<path d="M2670 2125 c-15 -18 -5 -65 14 -65 26 0 40 28 28 55 -13 29 -24 31
-42 10z m35 -16 c8 -23 -7 -45 -24 -35 -12 8 -15 39 -4 49 12 12 22 7 28 -14z"/>
<path d="M2766 2131 c-4 -5 3 -7 14 -4 27 7 26 -14 -2 -44 l-21 -23 29 1 c18
1 22 3 11 6 -17 4 -18 6 -2 24 10 10 15 25 12 34 -7 16 -32 20 -41 6z"/>
<path d="M2863 2133 c14 -4 16 -8 6 -19 -9 -11 -8 -14 5 -14 22 0 21 -27 -1
-33 -17 -4 -17 -5 0 -6 21 -1 34 26 19 41 -6 6 -8 17 -5 24 3 10 -2 14 -18 13
-18 -1 -20 -2 -6 -6z"/>
</g>
</svg>
