<svg xmlns="http://www.w3.org/2000/svg" width="865.76" height="682.89" viewBox="0 0 865.76 682.89"><path d="M78.43,558.25S14.39,424,109.21,372.14c0,0,29.86-24.39,89.94-22.87,0,0,113,25,124.78-21.09a114.18,114.18,0,0,0-.4-32.63c-7.18-42.41,4-86,30-120.21C399,115.42,472.75,56.82,563.4,123.57c0,0,18.31,11.56,31.21,30,0,0,168.46-101.72,212.45,53.83,0,0,37.54,175.07-25.75,331.06,0,0-15.43,122.73-270.55,59.43,0,0-120.66-22.52-216.49,4.65C294.27,602.54,122.93,651.27,78.43,558.25Z" fill="#fe5810"/><path d="M78.43,558.25S14.39,424,109.21,372.14c0,0,29.86-24.39,89.94-22.87,0,0,113,25,124.78-21.09a114.18,114.18,0,0,0-.4-32.63c-7.18-42.41,4-86,30-120.21C399,115.42,472.75,56.82,563.4,123.57c0,0,18.31,11.56,31.21,30,0,0,168.46-101.72,212.45,53.83,0,0,37.54,175.07-25.75,331.06,0,0-15.43,122.73-270.55,59.43,0,0-120.66-22.52-216.49,4.65C294.27,602.54,122.93,651.27,78.43,558.25Z" fill="#fff" opacity="0.7"/><path d="M310.63,267.74,205.76,164.49s-41.3-32.18-57.39-74c0,0,59-18.78,137.31-12.34l29.5,4.29s76.88,17.17,113,14.48c0,0,74.83-9.29,100.62-30,0,0-7.82,18.95-26.77,53.28L430.9,252.46Z" fill="#ff3262"/><path d="M89.34,396.05,58.61,400s-11.8.17-10.91,4.29c0,0-1.6,3.93,13.06,1.78,0,0-.72,2.86,1.25,3.4,0,0-2.51,5.72,5.36,4.83,0,0-1.25,5.25,4.47,5.13l21-3.16,9.94.71,6.44-13.05L106,396.05l-9.83-2.34Z" fill="#ffb8ca"/><path d="M485,337.79a37.87,37.87,0,0,0,8.28,3.29,1.73,1.73,0,0,0,2-1.42c.25-1.43.15-4.07-1.46-8.71,0,0-1.45-1.78-5.22-18.08l-1.75-5.43-13.11-6.58-4.86,3-5.19,21.06s8.24,2.86,11.86,6.15A43.47,43.47,0,0,0,485,337.79Z" fill="#ffb8ca"/><path d="M473.36,315.18s8.3,6.09,17.46,6.75l-4-14.49-13.11-6.58.5,12.45Z" fill="#f9aac0"/><path d="M461.32,411.76l10.32-49.61,1.72-32.74L493.8,331,510.07,349s12.55,11.89,2.85,23.8l-8.44,9.29s-15.57,19-18,26Z" fill="#e6e7e8"/><ellipse cx="492.56" cy="286.16" rx="22.4" ry="27.15" fill="#ffb8ca"/><path d="M548.37,367.55,521,344.73A29.52,29.52,0,0,1,510.07,349s12.57,12.4,2.85,23.8l-8.44,9.29,41.59,16.26s21.54,7.68,27.66-17.17l14.06-64.87a1.37,1.37,0,0,0-1.52-1.66l-17.36,2.19a3,3,0,0,0-2.44,2.07L552.18,366.4A2.39,2.39,0,0,1,548.37,367.55Z" fill="#ff3262"/><path d="M484.47,241.93s36.47-13.87,36,13.76c0,0-1.26-14.95-15.17-16.13,0,0-11.11,0-13.64,2.91C491.68,242.47,487.24,243.12,484.47,241.93Z" fill="#272727"/><path d="M278.48,438.77l-29.93-15.33s-34.42-19.18-23.3-44l14-25.39,15.86-9.87s17.4-7,30.34,0l98.2,63.69s-11.42.38-13.7,17.51l-6.86-3.42.53,2.54L298.29,433S279.92,434.51,278.48,438.77Z" fill="#fe5810"/><path d="M363.11,421.92l-95.51-44s-4.09,17,30.83,34.29l33.18,16.39,32-4.16Z" opacity="0.2"/><path d="M89.34,396.05a8.61,8.61,0,0,1,8.34-3.77l107.38-14.34,22.16-3,5.59,35.9L112.75,419.2s-19.11,1.34-19.92-3c0,0,6.37.05,9.63-4.62,3.89-5.57.42-13.37-6.17-15A22.49,22.49,0,0,0,89.34,396.05Z" fill="#fe5810"/><line x1="341.73" y1="427.31" x2="341.73" y2="316.21" fill="none" stroke="#f9e4dc" stroke-miterlimit="10" stroke-width="3"/><path d="M359.3,300.06l1,8.13a16.7,16.7,0,0,0,18.12,14.56h0a16.7,16.7,0,0,0,15.08-18.15l-.83-9.1L420.32,293l10.58-40.58L310.63,267.74,331,304Z" fill="#008fa3"/><path d="M187.14,82s18.89,50.34,46.25,75.28l88.45,109.07,19.87-2.53-57.9-114.32S253,89.74,247.06,76.83C247.06,76.83,215.94,76.19,187.14,82Z" fill="#fff" opacity="0.81"/><path d="M315.18,82.42,358.7,261.63l26.56-3.37-7.9-164.65S328.41,86.27,315.18,82.42Z" fill="#fff" opacity="0.81"/><path d="M428.18,96.9,398.9,256.53,418.64,254,486.23,85.31S453.89,93.89,428.18,96.9Z" fill="#fff" opacity="0.81"/><path d="M240,200.21s7.46,39.68,40.06,31.85c0,0,25.71-10.53,21.07-40.35,0,0,.85,36.18,34.24,33,0,0,30.16-2.82,25.25-41.32,0,0-1.49,35,33.18,33.5,0,0,33.66-4,24.15-41.47,0,0,3.74,36.76,32,33.81,0,0,32,2.92,26.68-42" fill="none" stroke="#f9e4dc" stroke-miterlimit="10" stroke-width="3"/><path d="M216.36,256.43c-8,11.89-30,33.57-81.43,25.51a47.63,47.63,0,0,1-5.38-1.13,58.39,58.39,0,0,1-12-4.5c-14.19-7.19-39.37-23.76-39.15-50.72,0,0-4.85-30.93,73.29-25.7,1.41.07,2.81.17,4.26.3,0,0,56.35,5.38,63.53,40.57A20.68,20.68,0,0,1,216.36,256.43Z" fill="#fe5810"/><path d="M216.36,256.43c-8,11.89-30,33.57-81.43,25.51a47.63,47.63,0,0,1-5.38-1.13,58.39,58.39,0,0,1-12-4.5c-14.19-7.19-39.37-23.76-39.15-50.72,0,0-4.85-30.93,73.29-25.7,1.41.07,2.81.17,4.26.3,0,0,56.35,5.38,63.53,40.57A20.68,20.68,0,0,1,216.36,256.43Z" fill="#fff" opacity="0.7"/><path d="M216.36,256.43c-8,11.89-30,33.57-81.43,25.51a47.63,47.63,0,0,1-5.38-1.13c52.59-25.3,30.49-68.08,22.17-80.92,1.41.07,2.81.17,4.26.3,0,0,56.35,5.38,63.53,40.57A20.68,20.68,0,0,1,216.36,256.43Z" fill="#fff" opacity="0.35"/><circle cx="701.82" cy="233.09" r="84.67" fill="#fff"/><path d="M404.23,419.4,408.16,408s-11.26,8.58-19.31-5c0,0-2-6.43,2.86-13.76l14.93-27.09,8.05-16.36S422.11,357.41,441,352c0,0,11.89-4.2,8-11.53,0,0-3.93-5.19,4.3-8.59l10.36-7s6.91,2.37,9.69,4.53l-1.72,32.74-10.32,49.61Z" fill="#ff3262"/><path d="M476.1,280.53a52.42,52.42,0,0,0,15.38-13.59s11.22,7.68,19.65,4c0,0,7,10.75,2.06,25.8,0,0-6,19.13-24.61,16.11,0,0,3.08,14.68,5.22,18.08L510.07,349s18.42-3.22,17-15.56c0,0,.61-4-7.2-9.37a11.77,11.77,0,0,1-5.11-7.84A12.14,12.14,0,0,1,517.4,307l4-7.89c1.07-2.09,2.19-4.15,3.45-6.12,3.18-4.94,10.33-19.77-9.05-31.23,0,0,1.44-23.78-23.24-19.48a13.49,13.49,0,0,1-10-1.26s-19.85-7.51-30.22,11.63c0,0-3.93,8-4.29,14.66,0,0-14.23-.82-16.88,19.6a13.13,13.13,0,0,1-4,8,32.56,32.56,0,0,1-9.49,5.84s13.41.76,16.22-14.57c0,0,2.28-13.59,11.27-15.2,0,0-10.06,7.65-8.45,19.85,0,0,1.07,8.85-8.72,14.75,0,0-37.14,11.26-33.93,37.28,0,0-.53,14.48,12.61,19.31l8.05-16.36s7.77,11.8,26.28,6.17c0,0,11.53-3.76,8-11.53,0,0-4-4.83,4.3-8.59,0,0,16-9.27,20.2-16.91a5.69,5.69,0,0,0,.66-2.95l-.45-11.12Z" fill="#272727"/><ellipse cx="472.71" cy="285.45" rx="6.79" ry="7.6" fill="#ffb8ca"/><path d="M429.26,379.4,441,361.5a36.38,36.38,0,0,1,8.58-9.18l23.81-18-1.91,28.71-1.29,6.21s-5.86,1.19-7.47,5.48Z" opacity="0.2"/><polygon points="408.16 408.01 465.91 389.7 461.32 411.76 404.23 419.39 408.16 408.01" opacity="0.2"/><path d="M227.22,374.93l9.29,4.12s11.8.35,14.49-10.91c0,0,2.24-8.43-5-11l-13-3.1Z" fill="#ffb8ca"/><path d="M227.22,374.93l6.8,3s9.83-11.56,9.92-19.09l-11-4.84Z" fill="#f9aac0"/><ellipse cx="212.96" cy="350.8" rx="25.82" ry="32.51" fill="#ffb8ca"/><path d="M237.13,362.15s2.27-7.32,1.64-12.88l-4.19-16.22-.94-1.69s-18.13,16.86-20.68,0c0,0-23.85,13.46-24,7.51a30.67,30.67,0,0,0-1.6,7.88s-16.27-5.25-5.36-21.16c0,0-6.08-14.31,3.22-15.74,0,0-4.47-17.34,12-9.83,0,0,5.93-12,11.37-.36,0,0,20.5-17.7,30.22,10.73,0,0,2-5.37,9.37-3,0,0-5.9,2.32-5.73,4.47,0,0,6.26-3.94,11.09-.18,0,0-9.3-.54-9.3,3,0,0,11.55,2.58,13.12,16.12a25.54,25.54,0,0,1-3.13,15.13C250.94,351.87,245,360.58,237.13,362.15Z" fill="#272727"/><ellipse cx="238.77" cy="340.32" rx="7.19" ry="8.96" fill="#ffb8ca"/><line x1="413.29" y1="308.47" x2="443.07" y2="413.82" fill="none" stroke="#f9e4dc" stroke-miterlimit="10" stroke-width="3"/><rect x="335.95" y="304.1" width="82.36" height="10.22" rx="5.11" transform="translate(-32.65 44.78) rotate(-6.51)" fill="#008fa3"/><line x1="323.93" y1="548.71" x2="485.98" y2="528.21" fill="none" stroke="#fcd6ca" stroke-linecap="round" stroke-linejoin="round"/><polygon points="568.87 316.86 585.08 314.81 586.03 310.98 571.57 306.77 568.87 316.86" fill="#ffb8ca"/><path d="M504.66,288.15l12.61,3.46,3.22-9.65-13.33-3.34a4.93,4.93,0,0,0-5.84,3.12h0A4.92,4.92,0,0,0,504.66,288.15Z" fill="#fe5810"/><path d="M504.66,288.15l12.61,3.46,3.22-9.65-13.33-3.34a4.93,4.93,0,0,0-5.84,3.12h0A4.92,4.92,0,0,0,504.66,288.15Z" opacity="0.2"/><path d="M552.47,286.79,522.66,280a7.1,7.1,0,0,0-8.34,5.54h0a7.1,7.1,0,0,0,5.41,8.36l27.71,6.92Z" fill="#fe5810"/><path d="M565.53,307.87l24.54,5.44,6.36-19.37-27.73-5.69a4.32,4.32,0,0,0-2.36.18,10.34,10.34,0,0,0-7.1,10.16s-.49,5.13,4.89,8.71A4.4,4.4,0,0,0,565.53,307.87Z" fill="#fe5810"/><path d="M560.83,304l-13.39-3.17s-4.83-3-2.86-9.42c0,0,1.12-5.19,7.89-4.65l12.69,2.14S555.62,293,560.83,304Z" fill="#e6e7e8"/><path d="M568.7,288.25s-7.43,6.33-4.7,9.05a3.94,3.94,0,0,0,4.7-.8s1.22,1.87,4.9,1.26a2.52,2.52,0,0,0,2.24,3.1s2.56.6,4-2.76c0,0,2.72,2.72,6.08-.16,0,0,2.06-4.7,6.87-4.75a2.65,2.65,0,0,0,1.61-3.57s-2.43-3.9-8.32-1.46c0,0-5-3-8.25-1.41C577.83,286.75,574.21,283.69,568.7,288.25Z" fill="#ffb8ca"/><path d="M594.23,315a12.43,12.43,0,0,1-6.86-4,9,9,0,0,1-1.31-10.14s1.61-5.85,10.37-6.92l7,1.52a10.8,10.8,0,0,1,8.42,12.86,15.9,15.9,0,0,1-.79,2.43s-3.21,7.33-13.41,5Z" fill="#e6e7e8"/><path d="M127,153.57H317.44s8.83-22.16-16.93-13.4c0,0-.88-10.81-18.85-6,0,0-1.34-17.7-26.82-6.43,0,0-11.26-3-17.16,5.63,0,0-23.16-22.53-37.82.71,0,0-12.52-3-25.39,8.23,0,0-8.58-5-21.45,7.15C153,149.47,147.83,138.35,127,153.57Z" fill="#e6e7e8"/><path d="M123.05,478.06c11,5.43,16.34,14.71,22.42,19.45-2.83,3.44-2.62,5.61-.52,6.06,2.47.54,9.89.54,12.84-2.42.15-.14.25-.29.38-.43,5.11-.49,10-2.2,15.91-1.59,8.89.93,41.57,5.45,49-1.94,0,0-11.83,4.06-35.48-.51-15.48-3-22.41-1.77-27.57-1.52a3.59,3.59,0,0,0-1.71-2,7.78,7.78,0,0,0-7.74,0c-6.28-3.41-7.67-8.28-18.75-15.37-12-7.7-25.94-10.86-32.68-22.75C99.11,455,104.56,468.88,123.05,478.06Z" fill="#fff" opacity="0.35"/><path d="M195.8,531.24c5.45-2,17.42-4.08,16.77-4.73s-15.91-.71-21.43,2.94c-4.13,2.74-11.19,11-14.48,14.95-1.17-7.41-4-19.31-7.48-23.35-5.14-6-33.73-12.17-33.73-12.17,1.29,3.3,20.64,11.76,26.14,15.77,4.52,3.3,5.36,17.8,6.22,23.59-3.48,1.29-5.73,2.55-3.88,3.75,3.31,2.13,10,3.3,14.1,2.76,2.55-.33,10.32-4.44,9.6-6.59-.29-.88-1.9-1.61-4.07-2C186.48,542,191.6,532.79,195.8,531.24Z" fill="#fff" opacity="0.35"/><path d="M547.24,141.62c.1-.93-2.1-3.15-4.49-2.64-1.9.4-1.57.81-3.38,1.79-3.9-2.18-8.69-4-12.75-2-5.77,2.73-17.59,15.44-17.59,15.44s11.82-9.68,16.22-11.44c2.48-1,5.21-.43,7.76.74a8.26,8.26,0,0,0-1.55,2c-1.56,2.57-1.08,6.36-.74,6.7s1-2.48,3.13-3.32c.93-.37,3.57-.57,5.84-1,4.73,3.68,9.12,7.28,10.29,10.06,1.27,3,1.07,21.6,1.07,21.6,1.18-2,2.84-21.3,2.84-23.75,0-3.43-4.55-8.15-9.1-11.47a4.79,4.79,0,0,1,.59-1.14C545.9,142.62,547.14,142.55,547.24,141.62Z" fill="#fff" opacity="0.35"/><path d="M593,250.69c-.39-3.32-8-14.07-10.46-15.34-1.64-.86-8.17-.52-13.15-.53v0c0-2.7-3-2.19-6.83-1.71-2.79-3.62-6.49-13.56-9.64-16.7-3.72-3.72-27.46-1.27-27.46-1.27-1.81,1.8,18,4,21.3,5s6.55,6.55,8.31,10.16,1.46,5.38-.69,6.45-4.59-.78-5.08-.29,1.18,3.13,5.28,4.4,8.31-1,10.26-1.95,4.6-.59,9.87-.59,8.07,3.86,12.51,7.52S593.42,254,593,250.69Z" fill="#fff" opacity="0.35"/><path d="M772.65,341.15c.78-.83,2.4-1.39,4.47-1.71v-4.83l-.62.41c-3,2-5.29,1.44-5.29,1.44-3.85.72-9.13-8.53-10.58-14.3s.72-15.62-2.52-18.62-25.24-8.54-24.52-6.85c.85,2,8.9,8.29,9.26,11.41.13,1.19-1.1,6.63-1,12.5.13,6.06,1.62,12.55,1.44,13.22-.36,1.32-3.37,4.69-4.93,4.57s-5.65-4.69-7-4.33-4.21,11.66-4,14.54,7.46,9.25,8.78,8.89,3-6,3.48-7.33,4.81-1.44,7.57-1.44c1.67,0,2.1,3.46,3,6.37.59,1.9,2,3.16,1.92,4.45-.24,3.24-10.69,12.74-10.69,12.74,6.72,1.08,30.52-17.79,31.24-21.28.26-1.23-2.79-3.1-2.52-5.76C770.39,343.8,772,341.82,772.65,341.15Z" fill="#fff" opacity="0.35"/><path d="M550.34,458,542,487h-4.23L531,463.65,524,487l-4.19,0-8.1-29h4l6.31,24.55L529,458h4.23l6.65,24.46L546.27,458Z" fill="#ff3262"/><path d="M558.28,461.07v9.68h10.55v3.11H558.28v10h11.79V487H554.5V458h15.57v3.11Z" fill="#ff3262"/><path d="M576.38,458h4.2l-4,9.43h-2.66Z" fill="#ff3262"/><path d="M600.14,487l-6.89-11.84h-4.57V487H584.9V458h9.35a12.38,12.38,0,0,1,5.54,1.12,7.86,7.86,0,0,1,3.39,3,9,9,0,0,1-.61,9.64,8.44,8.44,0,0,1-5.17,3L604.67,487Zm-11.46-14.87h5.57a6.32,6.32,0,0,0,4.61-1.52,5.44,5.44,0,0,0,1.53-4.05,5.17,5.17,0,0,0-1.51-4,6.56,6.56,0,0,0-4.63-1.42h-5.57Z" fill="#ff3262"/><path d="M613.93,461.07v9.68h10.55v3.11H613.93v10h11.8V487H610.15V458h15.58v3.11Z" fill="#ff3262"/><path d="M557.68,499.55v49.16h-12V528.47H527.08v20.24h-12V499.55h12v19.26h18.63V499.55Z" fill="#ff3262"/><path d="M578.27,499.55v49.16h-12V499.55Z" fill="#ff3262"/><path d="M612,548.71,601.8,530.15h-2.87v18.56H587V499.55h20.1a22.19,22.19,0,0,1,9.91,2,14.06,14.06,0,0,1,6.13,5.57,15.57,15.57,0,0,1,2,7.88,14.65,14.65,0,0,1-2.77,8.75,14.82,14.82,0,0,1-8.16,5.46l11.35,19.47Zm-13.09-27h7.42a6.83,6.83,0,0,0,4.94-1.61,6.1,6.1,0,0,0,1.64-4.55,5.9,5.9,0,0,0-1.64-4.41,6.79,6.79,0,0,0-4.94-1.61h-7.42Z" fill="#ff3262"/><path d="M644.58,499.55v49.16h-12V499.55Z" fill="#ff3262"/><path d="M697.25,548.71h-12l-20-30.32v30.32h-12V499.55h12l20,30.46V499.55h12Z" fill="#ff3262"/><path d="M738.56,515.1a9,9,0,0,0-3.81-3.75,12.55,12.55,0,0,0-5.85-1.29,12,12,0,0,0-9.31,3.81q-3.51,3.82-3.51,10.19,0,6.8,3.68,10.61t10.12,3.82a12.27,12.27,0,0,0,7.46-2.24,12.68,12.68,0,0,0,4.44-6.45H726.59V521h26v11.14a23.53,23.53,0,0,1-4.52,8.33,23.78,23.78,0,0,1-8.09,6.23A24.91,24.91,0,0,1,729,549.06a26.21,26.21,0,0,1-13-3.18,22.68,22.68,0,0,1-8.89-8.86,28,28,0,0,1,0-25.95,22.65,22.65,0,0,1,8.85-8.89,26,26,0,0,1,13-3.19,25.23,25.23,0,0,1,14.88,4.27,20.19,20.19,0,0,1,8,11.84Z" fill="#ff3262"/><polygon points="240.04 200.21 307.03 437.3 475.33 417.26 476.68 167.31 240.04 200.21" fill="none" stroke="#f9e4dc" stroke-miterlimit="10" stroke-width="3"/><path d="M486,434.51v90.62a25.2,25.2,0,0,1-21.78,25l-65.44,9-28.51,4.09L335,552.3l-2.6-45.06-14.56-49.88,3.08-1.51Z" fill="#008fa3"/><path d="M486,434.51v90.62a25.2,25.2,0,0,1-21.78,25l-65.44,9-28.51,4.09L335,552.3l-2.6-45.06-14.56-49.88,3.08-1.51Z" fill="#fff" opacity="0.2"/><path d="M378.09,561.9a26.66,26.66,0,0,1-29-18.28L321,455.85l22.37-3.21-1.59-25.33-55.85,7.2a13.16,13.16,0,0,0-10.81,13.65,11.41,11.41,0,0,0,2.81,7.84c2.64,2.8,7.93,5.41,18.35,3.15l24.5,79.74s3.59,31.21,40.41,25.75Z" fill="#008fa3"/><path d="M378.09,561.9a26.66,26.66,0,0,1-29-18.28L321,455.85l22.37-3.21-1.59-25.33-55.85,7.2a13.16,13.16,0,0,0-10.81,13.65,11.41,11.41,0,0,0,2.81,7.84c2.64,2.8,7.93,5.41,18.35,3.15l24.5,79.74s3.59,31.21,40.41,25.75Z" opacity="0.2"/><line x1="300.6" y1="473.38" x2="485.98" y2="449.98" fill="none" stroke="#fcd6ca" stroke-linecap="round" stroke-linejoin="round"/><path d="M309,472.32s1.87,45.36,43.54,19.1c0,0,23.49,10.6,40.77-6.26,0,0,17.86,11.8,41.78-3.62,0,0,47.71,14.72,39.31-30.1" fill="none" stroke="#fcd6ca" stroke-miterlimit="10"/><path d="M366.5,517.91l-11.92,1.56L351,520a8.54,8.54,0,0,1-9.75-7.83,1.48,1.48,0,0,0,0-.21L340,499.59a6.41,6.41,0,0,1,4.83-7.68l1.55-2.08,1-1.35-4-8.86,17.82-2.88-1.2,9.38,1.2,3.38s8-.25,9.06,7.94l1.55,13.49S372.28,517.44,366.5,517.91Z" fill="#f9ccc0"/><path d="M354.58,519.47l-3.66.48a8.46,8.46,0,0,1-9.61-6.9c-.05-.36-.08-.74-.1-1.14L340,499.59a6.41,6.41,0,0,1,4.83-7.68l1.55-2.08h6.76C336.58,504.67,350.18,516.34,354.58,519.47Z" opacity="0.2"/><path d="M407.8,512.83l-11.92,1.55-3.61.48a8.54,8.54,0,0,1-9.75-7.83v-.21l-1.23-12.32a6.42,6.42,0,0,1,4.83-7.68l1.55-2.08,1-1.35-4-8.86,17.82-2.88-1.2,9.39,1.2,3.37s8-.25,9.06,7.94l1.55,13.49S413.58,512.35,407.8,512.83Z" fill="#f9ccc0"/><path d="M395.88,514.38l-3.66.49c-4.52.6-9-2.38-9.61-6.9a10.51,10.51,0,0,1-.09-1.15l-1.23-12.32a6.42,6.42,0,0,1,4.83-7.68l1.55-2.08h6.76C377.89,499.58,391.48,511.25,395.88,514.38Z" opacity="0.2"/><path d="M449.31,506.48,437.4,508l-3.62.49a8.54,8.54,0,0,1-9.74-7.83,1.55,1.55,0,0,1,0-.22l-1.23-12.31a6.43,6.43,0,0,1,4.83-7.69l1.55-2.07,1-1.36-4-8.86L444,465.3l-1.2,9.39,1.2,3.38s8-.25,9.07,7.94l1.55,13.49S455.09,506,449.31,506.48Z" fill="#f9ccc0"/><path d="M437.4,508l-3.67.49a8.46,8.46,0,0,1-9.61-6.9,10.13,10.13,0,0,1-.09-1.15l-1.23-12.31a6.43,6.43,0,0,1,4.83-7.69l1.55-2.07h6.76C419.4,493.24,433,504.9,437.4,508Z" opacity="0.2"/><path d="M338.69,468.57s1.59,5.77,6.77,8.41a11.3,11.3,0,0,0,11.44-.8c2.52-1.74,4.93-4.88,4.51-10.48" fill="none" stroke="#fcd6ca" stroke-miterlimit="10"/><path d="M380.79,463.59s1.59,5.77,6.77,8.41a11.3,11.3,0,0,0,11.44-.8c2.52-1.74,4.93-4.88,4.51-10.48" fill="none" stroke="#fcd6ca" stroke-miterlimit="10"/><path d="M421.92,458.07a13.38,13.38,0,0,0,6.54,7.7,11.28,11.28,0,0,0,11.43-.8c2.52-1.74,5-4.15,4.57-9.75" fill="none" stroke="#fcd6ca" stroke-miterlimit="10"/><path d="M347,452.53l144.73-18.77a13.06,13.06,0,0,0,11.3-14.39h0a13.06,13.06,0,0,0-14.68-11.5l-144.86,19a12.93,12.93,0,0,0-11,13.72h0A12.93,12.93,0,0,0,347,452.53Z" fill="#008fa3"/><path d="M345.64,493.3a2.5,2.5,0,0,1-.29-5l16.34-1.92a2.5,2.5,0,0,1,.59,5l-16.35,1.92Z" fill="#fff"/><path d="M386.94,488.21a2.5,2.5,0,0,1-.29-5L403,481.3a2.5,2.5,0,1,1,.59,5l-16.34,1.92Z" fill="#fff"/><path d="M428.45,481.86a2.5,2.5,0,0,1-.29-5L444.51,475a2.51,2.51,0,0,1,.58,5l-16.34,1.92Z" fill="#fff"/><path d="M370.25,423.53s5.15,2.26,6.42,7.36c0,0,4.68,10.63,10.42,3.83,0,0,6,5.95,10.21-.21,0,0,4.67.54,5.31-4.09,0,0,4.63,1.8,6.7-1.73a5,5,0,0,0-.7-5.72l-9.4-11.21s-4.93-5.94-15.54-3.93C383.67,407.83,372.77,408.73,370.25,423.53Z" fill="#ffb8ca"/><ellipse cx="196" cy="357.8" rx="2.17" ry="3.91" transform="translate(-95.23 72.1) rotate(-16.84)" fill="#272727"/><ellipse cx="213.04" cy="352.65" rx="2.17" ry="3.91" transform="translate(-93.01 76.82) rotate(-16.84)" fill="#272727"/><path d="M205.08,347.35a4,4,0,0,1,.52-2.45,6.41,6.41,0,0,1,1.65-1.94,8.55,8.55,0,0,1,2.18-1.23c.39-.14.79-.25,1.19-.35a10.09,10.09,0,0,1,1.23-.16c-.35.23-.71.42-1.06.61s-.68.41-1,.6a18.74,18.74,0,0,0-1.9,1.31A8.46,8.46,0,0,0,205.08,347.35Z" fill="#272727"/><path d="M191.22,349.5a3.71,3.71,0,0,1,1.53-1.06,5,5,0,0,1,1.86-.35,4.8,4.8,0,0,1,3.41,1.39c-.63-.08-1.19-.21-1.75-.27a10.39,10.39,0,0,0-1.66-.12,11.65,11.65,0,0,0-1.66.1C192.39,349.26,191.83,349.37,191.22,349.5Z" fill="#272727"/><path d="M202.65,355.79a75.56,75.56,0,0,1,.73,10.3l-.43-.3c.77-.21,1.55-.39,2.32-.58s1.56-.35,2.35-.49c-1.59.69-3.23,1.28-4.87,1.83a75.76,75.76,0,0,1-.1-10.76Z" fill="#f9aac0"/><path d="M204.93,372.34,216,369s-.36,5.55-4.68,7.76C211.27,376.77,206.82,378.57,204.93,372.34Z" fill="#fff"/><ellipse cx="488.41" cy="284.51" rx="3.91" ry="2.17" transform="translate(170.33 751.75) rotate(-85.98)" fill="#272727"/><path d="M495,277.57a8.35,8.35,0,0,0-3.51-2.89,17.38,17.38,0,0,0-2.14-.86l-1.14-.36a11.09,11.09,0,0,1-1.16-.37c.41-.06.82-.09,1.23-.11s.83,0,1.24.08a8.2,8.2,0,0,1,2.4.72,6.48,6.48,0,0,1,2,1.52A4,4,0,0,1,495,277.57Z" fill="#272727"/><path d="M509,276.6c-.62,0-1.2,0-1.76.08a11,11,0,0,0-1.64.27,12,12,0,0,0-1.59.48c-.53.19-1.05.44-1.64.66a4.7,4.7,0,0,1,3-2.11,4.81,4.81,0,0,1,1.89-.08A3.76,3.76,0,0,1,509,276.6Z" fill="#272727"/><path d="M499.24,285.27a76.89,76.89,0,0,1,2.29,10.51c-1.73-.17-3.45-.38-5.16-.7.8,0,1.6-.06,2.4-.05s1.6,0,2.39.05l-.35.39a76.14,76.14,0,0,1-1.57-10.2Z" fill="#f9aac0"/><path d="M500.68,301.91l-11.48-.81s1.59,5.34,6.29,6.54C495.49,307.64,500.22,308.41,500.68,301.91Z" fill="#fff"/><path d="M238.77,336.24a6.6,6.6,0,0,1,1.27,8,21.55,21.55,0,0,0-1.27-8Z" fill="#f9aac0"/><path d="M387.09,434.72c-1.27-1.78-2.37-3.6-3.53-5.38a57.31,57.31,0,0,0-3.68-5.22,10.52,10.52,0,0,1,2.53,2.08,19.25,19.25,0,0,1,2,2.6,25.57,25.57,0,0,1,1.57,2.86A17.74,17.74,0,0,1,387.09,434.72Z" fill="#f9aac0"/><path d="M397.3,434.51c-.69-1.27-1.41-2.5-2.12-3.72s-1.47-2.41-2.29-3.55a31.82,31.82,0,0,0-2.61-3.28,20.79,20.79,0,0,0-3.19-2.78,11.59,11.59,0,0,1,3.73,2.21,19.91,19.91,0,0,1,2.89,3.27A23.7,23.7,0,0,1,397.3,434.51Z" fill="#f9aac0"/><path d="M402.61,430.42c-1-2-1.93-4-2.93-5.89a30.82,30.82,0,0,0-1.61-2.8,7.37,7.37,0,0,0-2.19-2.33,5.11,5.11,0,0,1,2.81,1.86,14.51,14.51,0,0,1,1.88,2.81A20,20,0,0,1,402.61,430.42Z" fill="#f9aac0"/><path d="M472.71,290.34c-1.68-2.32-1.14-5.65,0-8.1-.1,2.76-.66,5.41,0,8.1Z" fill="#f9aac0"/><path d="M67.37,414.27a47.56,47.56,0,0,1,12-1.86,47.49,47.49,0,0,1-12,1.86Z" fill="#f9aac0"/><path d="M62,409.44a56.93,56.93,0,0,1,15.14-2.06A57,57,0,0,1,62,409.44Z" fill="#f9aac0"/><path d="M60.76,406A61.42,61.42,0,0,1,76.43,404,60.55,60.55,0,0,1,60.76,406Z" fill="#f9aac0"/><path d="M461.32,375s-4.39,9.36,4.59,14.75h16.23a2.84,2.84,0,0,0,2.5-4.23.35.35,0,0,0-.05-.08s3.14-1.12.6-4.2c0,0,4.68-1,1-6.24,0,0,4.11-.06,1.42-2.81,0,0-2.69-5.83-9-5.19l-8.45,2.32s-5.51,1.48-7.1,4.49a2.37,2.37,0,0,1-1.74,1.19Z" fill="#ffb8ca"/></svg>