<?xml version="1.0" encoding="UTF-8"?>
<svg xmlns="http://www.w3.org/2000/svg" id="a" width="865.76" height="682.89" viewBox="0 0 865.76 682.89">
  <line x1="59.24" y1="620.98" x2="806.52" y2="620.98" fill="none" stroke="#002346" stroke-linecap="round" stroke-linejoin="round"></line>
  <g>
    <path d="M558.64,205.96l-71.94-57-41.34,2.83-14.36-20-17.3-6.65s22.27-10.77,35.82-31.97c0,0,59.58,20.05,105.99-37.97,2.66-3.32,7.78-3.08,10.12,.48,14,21.27,48.43,86.7-6.98,150.29Z" fill="#002346" stroke="#002346" stroke-miterlimit="10"></path>
    <path d="M465.84,131.75s-15.77,10.69-37.44,54.62l17.82-5.9,12-11.62s15.46-20.3,7.62-37.1Z" fill="#f69074" stroke="#002346" stroke-miterlimit="10"></path>
    <path d="M437.23,137.31c4.24,3.28,17.19,14.98,21.06,18.7,1.11,1.1,4.86,4.3,7.21,6.52,2.26,2.14,4.55,4.25,6.89,6.3l2.84,2.48s-12.39,17.64-18.27,20.9c0,0-12.29-15.11-19.63-18.87,0,0,5.57-7.11,3.19-24.73,2.12-.49-4.82-9.76-3.29-11.3Z" fill="#f1b2c0" stroke="#002346" stroke-miterlimit="10"></path>
    <path d="M361.77,206.14s17.85,34,32.89,41.35l88.47-10.76-23.74-34.86-26.73-8.1s-14.16,22.92-35.71-8.23l-21,2.06-14.18,18.54Z" fill="#f69074" stroke="#002346" stroke-miterlimit="10"></path>
    <path d="M657.52,360.37s3.5-16.44,13.51-16.44c0,0,17.37,4.37,17.41-11.23,.01-3.76,.5-7.51,1.77-11.04,2.84-7.96,8.71-19.3,18.19-15.23,0,0,13.69,4.56,18.25-6.08,0,0,7.1-13.18,26.86-15.21,0,0,23.78-11.66,28.62-2.53,0,0,2.98,5.14,1.12,25.38-.49,5.31-.7,10.64-.51,15.97,.2,5.9-.56,14.03-6.01,15.74-2.11,.66-4.04,1.83-5.29,3.66-1.86,2.73-3.25,7.16-.18,13.3,0,0,4.01,5.94-3.73,20.31-2.86,5.3-6.59,10.08-10.79,14.4s-9.83,12.01-3.59,17.92c3.05,2.89,3.9,7.43,1.73,11.03-3.23,5.37-11.05,13.21-29.24,23.36-37.51,20.93-2.57,0-2.57,0l-75.36,25.5-34.8-27.65,2.72-9.63,4.94-8.75,36.95-62.75Z" fill="#7cd295" stroke="#002346" stroke-miterlimit="10"></path>
    <path d="M408.35,400.22c-2.03-2.62-2.77-6.09-1.71-9.22,0-.02,.02-.04,.02-.07,1.04-2.79,.9-5.88-.38-8.56-1.03-2.29-2.43-4.4-4.15-6.23-1.65-1.69-2.98-3.67-3.92-5.84l-1.58-3.49c-1.05-2.31-2.27-4.56-3.88-6.53-1.76-2.16-2.58-4.99-2.17-7.81,.48-3.81-1.15-7.58-4.24-9.85-.8-.56-1.65-1.04-2.54-1.44,0,0-29.96-22.81-27.3-28.15,0,0,18-4.69,31.45-2.4,3.56,.56,6.78,2.45,9,5.29,1.21,1.72,3.36,2.52,5.4,2,1.13,.05,2.23-.31,3.12-1,4.17-3.25,9.61-4.42,14.49-2.4s11.69,6.23,20.35,14.1c0,0,5,6.58,16.83-1.63,11.83-8.21,16,36.9,16,36.9l2.28,60-41.41,9.42-25.66-33.09Z" fill="#7cd295" stroke="#002346" stroke-miterlimit="10"></path>
    <path d="M495.01,620.97c12.77-16.4,24.38-37.08,24.41-37.08,3.63-21.1-6-26.56-6-26.56-7.64-5.25-22.47,14.5-22.47,14.5-6.96-5.51,2.18-14.28,2.18-14.28,10.66-11.32,5.16-21.54,5.16-21.54l-18.73-16.39c-17.8-8-27.57,21.64-27.57,21.64-2.68-3.44-.54-12.02,.87-16.6,1-3.24,1.28-6.7,.49-10-1.63-6.85-6.41-9.69-9.9-10.86-1.82-.61-3.76-.67-5.66-.39-2.24,.33-3.45-.43-3.45-.43-9.77-6.72-14.29-.78-16.19,3.74-1.38,3.28-3.07,6.41-5.21,9.24l-.71,.93-2.35-4.19c-.76-1.35-1.4-2.76-2.03-4.17-4.86-10.86-16.77-8.04-23-5.65-2.21,.85-4.48,1.59-6.81,2-9.47,1.66-10.4,12.01-10.4,12.01l-5.16,22.76c-2.84,13.1,18,20.6,24.13,22.51,.56,.17,.64,.9,.16,1.23-2.92,1.97-5.13,6.43-5.13,6.43-26.9-2.41-14.37,18.77-14.37,18.77,3.69,6.77,8.48,17.43,8.48,17.43,.08,.18,.16,.36,.25,.54,4.16,8.97,14.7,13.14,23.78,9.25,3.85-1.65,7.98-2.3,10.03-2.54,.88-.1,1.76-.14,2.64-.03,6,.73,2.43,5-.59,7.74h83.15Z" fill="#7cd295" stroke="#002346" stroke-miterlimit="10"></path>
    <line x1="386.14" y1="520" x2="457.26" y2="594.02" fill="none" stroke="#002346" stroke-linecap="round" stroke-linejoin="round"></line>
    <polyline points="400.24 506.43 402.34 536.85 373.93 535.57" fill="none" stroke="#002346" stroke-linecap="round" stroke-linejoin="round"></polyline>
    <polyline points="437.02 525.31 434.34 570.85 392.02 573.31" fill="none" stroke="#002346" stroke-linecap="round" stroke-linejoin="round"></polyline>
    <line x1="463.67" y1="606.48" x2="421.7" y2="617.29" fill="none" stroke="#002346" stroke-linecap="round" stroke-linejoin="round"></line>
    <line x1="475.61" y1="521.7" x2="467.91" y2="595.36" fill="none" stroke="#002346" stroke-linecap="round" stroke-linejoin="round"></line>
    <path d="M669.29,405.75c-13.65,13.89-31.7,17.76-48.74,17.25-27.27-.79-52-12.75-52-12.75-.27,.22-.53,.45-.8,.65-4.22,3.22-9.99,3.48-14.48,.67-2.48-1.5-4.39-3.77-5.45-6.46l-5.37-13.58-12.16,6.53-41.34,10c-7-.87-15.23-4.79-15.23-4.79-8.71-2.61-6.53,4.79-6.53,4.79l-10.09-4.69c-5.46-2.5-9.07-7.82-9.36-13.81-.6-15.03,13.92-36.77,26.59-52.75,7.97-10.06,16.84-19.36,26.33-28.01,17.14-15.63,22.05-26.06,22.05-26.06,5.51-7.55,2-9.3,2-9.3-6.38,1.46-16-3.18-16-3.18-16.55,33.07-59,33.51-59,33.51-24.86,2.02-44.11-13.43-53.01-22.32-4.74-4.74-7.02-11.45-5.97-18.06,.94-5.9,3.14-12.43,5.67-18.52,3.36-8.13,7.3-15.47,9.57-19.51,1.17-2.06,1.9-3.26,1.9-3.26,29.06,20.67,45.45,11.4,51.56,5.86,1.95-1.75,2.28-4.69,.77-6.83-6.77-9.4-27.57-27.36-27.57-27.36-7.14-4.34-4.26-7.4-4.26-7.4,1.19-.38,5.65-1.86,9.8-3.24l8-2.66c2,1.95,4,4.05,6,6.29,1.67,1.84,3.23,3.67,4.71,5.45,1.72-1.19,3.33-2.53,4.83-4,.67-.68,1.27-1.33,1.83-2l-8.43-9c-5.59-6.38,0-11,0-11,16.11-19.4,10.68-34.45,10.68-34.45,3.76,2.79,19.73,10.55,19.73,10.55,42.07,17.12,67.32,55.55,67.32,55.55,9.42,14.08,16.32,19.15,16.32,19.15l1.08-2.82,17,11.75-.86,1.52c69.63,35.69,69.63,115.33,69.63,115.33,1.24,32.21,9.3,48.33,13.86,54.95,1.74,2.47,1.49,5.82-.58,8.01Z" fill="#f69074" stroke="#002346" stroke-miterlimit="10"></path>
    <path d="M462.93,418.08c-11.31-4-18.21-.83-20.69,.78-.74,.47-1.64,.64-2.5,.47-13.18-2.56-77.22-11.26-77.22-11.26-8.29-.76-8.28,6.39-8.28,6.39l-3.77,27.29c-.23,1.66,.53,3.31,1.94,4.21,11.31,7.2,61.53,38.02,95.16,39.77l15.35-67.65Z" fill="#fbe493" stroke="#002346" stroke-miterlimit="10"></path>
    <path d="M513.55,620.98l5.41-22.81c2.3-9.71,3.12-19.7,2.41-29.65-.43-5.97-.7-12.66-.29-17.44h0c.79-9.35,.11-23.87-.08-27.55,0-.56-.05-.86-.05-.86l-.79-3.44h0l-2.37-10.48s0-.07,0-.11c-.08-1.17-.23-2.34-.44-3.49-.06-.32-.12-.68-.2-1-.14-.74-.31-1.45-.48-2.17-1.44-5.73-3.64-11.25-6.54-16.4l-.28-.5c-.23-.41-.47-.82-.71-1.23-.38-.64-.76-1.27-1.14-1.86h0c-2.1-3.29-4.44-6.41-7-9.36l-.05-.07h-.08l-.15-.1-.86-.52c-.7-.42-1.01-1.26-.76-2.04h0c.33-1.01,.98-1.89,1.85-2.52l.32-.23h0c.6-.36,6.31-4,3.76-7.36h0c-.88-1.01-1.99-1.78-3.25-2.24l4.83-8.08,5.92-9.9-11.18-19.08c-.42-.72-.28-1.63,.34-2.19l4.75-4.27,.68,1.21-3.59,3.87,19.25,28.98c.2,.3,.68,.11,.61-.25l-6.69-34.97c-.33-1.73,.39-3.48,1.83-4.49l23.85-16.67,5.38,13.58c2.35,5.66,8.25,8.99,14.31,8.07,0,0,4.13-.69,6.47-3.1l53.55,152.3,40.01,58.41h-148.55Z" fill="#fbe493" stroke="#002346" stroke-miterlimit="10"></path>
    <path d="M655.07,615.98s10.15,6.3,10.4-1.39c0,0,1.52-15.39-5.2-27.31l-5.2-10.17,9.48,2.62c.9,.25,1.84-.27,2.1-1.18,.04-.15,.06-.31,.06-.46v-7.17c0-.63-.34-1.2-.89-1.5l-19.53-10.64-6.89,23.59,15.67,33.61Z" fill="#fff" stroke="#002346" stroke-miterlimit="10"></path>
    <path d="M620.57,423.06s-5.41,15.88-30.64,32.54c0,0-41.29-7.45-54.52-6.31,0,0,10.47-26.34,17.85-37.72h0c4.5,2.81,10.26,2.55,14.48-.67,.27-.2,.53-.43,.8-.65,0,0,24.7,12,52,12.75l.03,.06Z" fill="#002346" stroke="#002346" stroke-miterlimit="10"></path>
    <polyline points="524.46 399.46 542.43 391.53 525.17 403.59" fill="#fbe493" stroke="#002346" stroke-miterlimit="10"></polyline>
    <path d="M314.04,159.65c-3.1-.6-6.18,1.33-6.85,4.41-.96,4.39-.78,11.97,4.38,24.26,2.14,5.22,5.52,9.87,9.88,13.57,2.35,1.96,5.07,3.68,7.88,4.34,2.6,.61,5.15-1.19,5.51-3.83l2.13-15.37-12.6-25.38-10.33-2.01Z" fill="#fff" stroke="#002346" stroke-miterlimit="10"></path>
    <circle cx="406.06" cy="265.61" r="5.95" fill="#fff" stroke="#002346" stroke-miterlimit="10"></circle>
    <path d="M531.81,460.56s-5.9-11.09,3.6-11.26c0,0,24-1.49,54.52,6.3l23,69.84s9.46,33.34,14.87,29.74c0,0,11.26-6.76,18.47,3.6,0,0,16.89,44.43,12.88,55.72-.56,1.48-2.22,2.21-3.69,1.65-.13-.05-.25-.11-.37-.17-4.29-2.32-15.87-10.15-38.11-35.12,0,0-25.68-23.88-63.07-76.6-.02,0-26.62-36.49-22.1-43.7Z" fill="#f69074" stroke="#002346" stroke-miterlimit="10"></path>
    <path d="M467.15,408.07s-16.69,35.09-18.15,45.24c0,0,42.94-2,52.81,4.07l10.73-18-11.17-19.08c-.42-.72-.28-1.63,.34-2.19l4.74-4.26-.87-2.29-18.84-4-13.06-4.27s-7.81-3.77-6.53,4.78Z" fill="#002346" stroke="#002346" stroke-miterlimit="10"></path>
    <path d="M521.09,551.07c-5.33-2.94-22.84-13.17-36.69-27.25,0,0-50.2-40.92-43.52-57.16,0,0-11.6-10.44,8.12-13.35,0,0,44.78-3.2,52.8,4.06,1.26,.46,2.37,1.23,3.25,2.24h0c1.09,1.52,1.08,3.85-3.27,7,0,0-.2,.12-.49,.33h0l-.32,.23c-.68,.46-1.23,1.09-1.6,1.83-.05,.11-.09,.22-.13,.33-.31,.87-.11,1.85,1.25,2.76l.25,.15,.15,.1h.08l.05,.07c2.56,2.95,4.9,6.07,7,9.36h0c4.38,6.77,7.48,14.28,9.15,22.16,.08,.36,.14,.72,.2,1,.18,1.15,.34,2.31,.44,3.49,0,.04,0,.07,0,.11l2.37,10.48h0l.79,3.44s0,.3,.05,.86c.18,3.89,.86,18.41,.07,27.76Z" fill="#f69074" stroke="#002346" stroke-miterlimit="10"></path>
    <path d="M505.06,411.46c5.33-4.03,9.68-9.22,12.74-15.16,0,0,1.17,5.93,8.26,4.27l.34,2.16-8.11,5.64c-1.25,.88-1.85,2.42-1.51,3.91l4.61,20.67-3.58,.83-11.35-19.95-.87-2.29" fill="#f1b2c0" stroke="#002346" stroke-miterlimit="10"></path>
    <path d="M507.13,415.05l-3.58,3.88,19.54,29.44c.15,.22,.5,.09,.46-.18l-2.17-15.22-.81,.19c-1.64,.39-3.34-.34-4.18-1.8l-9.26-16.32Z" fill="#fbe493" stroke="#002346" stroke-miterlimit="10"></path>
    <path d="M596.68,450.72s-.65-13.45-17-20.88c0,0-14.54-10.31-24.55-3.68-1.01,.64-1.31,1.98-.67,2.99h0c.79,1.14,2.69,2.34,7.16,2.65,0,0-11.21,4.54-13,15.42,0,0-2.45,4.52,4.08,5.85,0,0,26.79,.26,29.93,10.15l8.27-8.34,5.78-4.16Z" fill="#f1b2c0" stroke="#002346" stroke-miterlimit="10"></path>
    <ellipse cx="523.98" cy="469.42" rx="3.65" ry="4.79" fill="#fff" stroke="#002346" stroke-miterlimit="10"></ellipse>
    <ellipse cx="533.35" cy="516.91" rx="3.65" ry="4.79" fill="#fff" stroke="#002346" stroke-miterlimit="10"></ellipse>
    <ellipse cx="540.66" cy="565.04" rx="3.65" ry="4.79" fill="#fff" stroke="#002346" stroke-miterlimit="10"></ellipse>
    <path d="M313.66,415.31s-30.91-6.08-28.53-13c0,0-.91-5.91,14.33-2.77,1.97,.41,3.98,.63,6,.66l19.52,.29s9.11-11.95,19,.34c0,0,5.85,14.32,10.24,13.63l-3.69,26.91c-2.26-.93-4.86-.17-6.26,1.83,0,0-4.94,7.11-17.12,2.47,0,0-13.2,0-16.4-10,0,0-1.74-5.37,2.47-7,0,0-.87-2.61,.15-3.91,0-.02-3.63-2.93,.29-9.45Z" fill="#f1b2c0" stroke="#002346" stroke-miterlimit="10"></path>
    <path d="M337.01,408.63s-2.35,10.2-7.19,14c-2.08,1.55-5.02,1.12-6.56-.96-.4-.53-.67-1.14-.82-1.79-.72-3.24-.62-9,2.51-19.36" fill="none" stroke="#002346" stroke-linecap="round" stroke-linejoin="round"></path>
    <path d="M313.37,424.74s14,10.48,21.72,5.86c1.66-.99,2.21-3.13,1.23-4.8-.07-.12-.14-.23-.23-.33-1.42-1.69-3.25-2.98-5.31-3.77" fill="none" stroke="#002346" stroke-linecap="round" stroke-linejoin="round"></path>
    <path d="M313.22,428.65s9,10.58,19.62,9.2c1.1-.11,2.11-.66,2.8-1.52,.84-1.11,1.35-3-.55-5.73" fill="none" stroke="#002346" stroke-linecap="round" stroke-linejoin="round"></path>
    <path d="M332.29,437.98s1.45,7.68-5.15,7.65c0,0-14.12,.1-16.62-11" fill="none" stroke="#002346" stroke-linecap="round" stroke-linejoin="round"></path>
    <path d="M483.22,620.98c.7-9.06-2.28-18.94-2.28-18.94-2.18,1.3-2.61,1-2.61,1-1.89,0,1.17-3.77,1.17-3.77,.44-4.49-1.46-11.31-1.46-11.31-2.9,5.22-3.77,3.48-3.77,3.48-2.47-1.89,2.46-7.4,2.46-7.4-.43-5.8-5.08-15.38-5.08-15.38-4.2,8.71-5.94,7-5.94,7-2.76-.29,4.78-9.87,4.78-9.87l-8.41-11.17c-8.27,5.37-10.15,20-10.15,20l3.22,3.92c3.23,2,1.43,2.9,1.43,2.9-2.45,.58-4.65-2.9-4.65-2.9v16l4.88,2.75c1.66,.56,3.13,1.58,4.24,2.94,.36,.42,.31,1.05-.11,1.41-.24,.21-.58,.29-.89,.21-2.5-.57-4.89-1.52-7.1-2.82,.73,5.95,2.21,12.62,2.21,12.62l.39,.36c1.63,1.52,3.55,1.7,5.64,2.47h0c1.58,.72,3.03,.7,4.29,1.9,.58,.64,.53,1.62-.1,2.2-.33,.3-.78,.45-1.23,.4-3.7-.54-7-2.71-7-2.71,.13,.75,.29,2.83,.46,4.71h25.62Z" fill="#7cd295" stroke="#002346" stroke-miterlimit="10"></path>
    <path d="M622.1,550.19s4.29,.29,9.77,1.03c7.12,.96,13.94,3.39,20.32,6.7,2.83,1.47,6.83,2.52,11.52,.86,0,0,5.61-2.28,5.07-14.44,0,0,2.57-1.48,7.44,6.73,0,0,10.42,14.75,43.08,.89,0,0,13.89-7.27,5.56-16.65l-14.94-13.61s7.64-4.46,22.23,6.66c0,0,11.47,5.44,20.5-6.66,0,0,24.32-25.51,13.55-36.18l-9-3.63s27.44-17.26,21.88-28.82c0,0-12.85-20.75-29.18-11.64,0,0-16,7-14.94,2.15,0,0,10.08-8.73,1-13.74,0,0-2.15-3.04-6.89-2.28-6.75,1.08-13.65,1.09-20.24-.72-2.24-.61-4.41-1.31-6.2-2.08-2.44-1.05-5.16-1.4-7.77-.89-3.81,.74-8.09,3.36-8.55,11.28-.12,2.01-.4,4.01-1.02,5.92-1.04,3.2-3.04,7.47-6.57,9.13-1.46,.69-3.18-.21-3.44-1.8-.4-2.35-.65-6.03,.6-9.63,.51-1.48,.82-3.03,.71-4.59-.23-3.09-1.42-7.48-6.37-7.34-.92,.03-1.81,.26-2.66,.59-4.13,1.59-17.87,7.85-28,23.66l-26.64,74.35s4.76,18.09,9.19,24.75Z" fill="#7cd295" stroke="#002346" stroke-miterlimit="10"></path>
    <path d="M664.1,526.24s-8.94,25.18-41.61,6.57c0,0-.23-.14-.66-.4-12.96-7.9-23.67-18.89-31.76-31.72-2.09-3.31-4.46-6.43-7.08-9.34s-4.64-6.04-6.02-9.58c-1.16-2.98-1.98-6.46-1.39-9.65h0c.55-3.06,2.51-5.68,5.28-7.07l9-9.43,8.71-6.32s13.38-11.65,17-17.49c0,0,46.45,32.51,52.57,70h0v1c.08,.07,2.83,11.07-4.04,23.44Z" fill="#fbe493" stroke="#002346" stroke-miterlimit="10"></path>
    <ellipse cx="590.01" cy="477.66" rx="4.2" ry="5.56" fill="#fff" stroke="#002346" stroke-miterlimit="10"></ellipse>
    <path d="M575.61,620.93c1.99-1.47,3.91-3.03,5.76-4.68-15.69,4.05-14.26,1-14.26,1,.2-3.26,16.5-4.49,16.5-4.49,9.16-7.33,14.16-19.13,14.16-19.13-8.48,5.44-9.36,4.13-9.36,4.13-2.82-1.96,7.62-5.66,7.62-5.66,5.66-1.52,12.4-14.14,12.4-14.14-8.24-5-20.24-5.08-20.24-5.08-1.21,1.29-2.52,2.5-3.91,3.6-3.29,1.41-.63-3.76-.63-3.76l-18.63-.93c-9.24,11.45-10.33,9.07-10.33,9.07-2.35-1.41,6.31-9.07,6.31-9.07l-17.49,3.75c-1.85,.39-3.53,1.37-4.78,2.79l-5.15,5.8c-3.63,1.45,.87-6.1,.87-6.1-10.52,1.08-19.75,7.5-24.41,17-.4,.87-.95,1.67-1.62,2.35-3.72,3.73,.06-7.12,.06-7.12-13.47,7.8-20.69,20-24.55,30.72l91.68-.05Z" fill="#7cd295" stroke="#002346" stroke-miterlimit="10"></path>
    <ellipse cx="320.23" cy="186.44" rx="3.43" ry="17.05" transform="translate(-49.08 156.22) rotate(-25.53)" fill="#e6e7e8" stroke="#002346" stroke-miterlimit="10"></ellipse>
    <rect x="384.91" y="105.94" width="53.29" height="79.31" rx="26.64" ry="26.64" transform="translate(-11.3 254.09) rotate(-33.87)" fill="#f1b2c0" stroke="#002346" stroke-miterlimit="10"></rect>
    <path d="M392.29,151.37l-17.69,16.2-17.28,15.83-23.86,21.85c-.43,.39-1.11,.16-1.22-.41-5.75-28.66-22.8-44.41-22.8-44.41,1.06-2.06,5.03-3.51,11.4-5.65,3.99-1.34,8.06-2.47,12.18-3.43,8.41-2,16.99-3.35,25.35-4.64,8.22-1.27,16.22-2.47,23.6-4.15,1.75-.4,3.58,.01,5,1.12,2.35,2.11,4.17,4.74,5.32,7.69Z" fill="#fbe493" stroke="#002346" stroke-miterlimit="10"></path>
    <path d="M374.6,167.57l-17.28,15.83c-3.99-12.3-17.8-26.07-24.3-32.05,8.41-2,16.99-3.35,25.35-4.64,6.64,6.61,13.02,15.92,16.23,20.86Z" fill="#fff" stroke="#002346" stroke-miterlimit="10"></path>
    <path d="M319.59,154.89s-6.11-22.07,0-23.14c0,0,5.56-2.87,8.74,13.12,0,0,4.18-1.28,7.38,.9,0,0,2.46-7.83,13.05-5.08,1.37-.89,3.05-1.16,4.63-.73,2.68,.58,5.01,2.23,6.45,4.56,1.13,1.76,2.46,4.22,2.92,6.56,.62,3.11-2.4,5.87-5.4,4.83l-.04-.02s-.87,3.37-6.53,1.92c0,0-1.9,4.93-10.88,.36,0,0-10.18-6.66-20.32-3.28Z" fill="#f1b2c0" stroke="#002346" stroke-miterlimit="10"></path>
    <path d="M383.75,78.93c-16.46,10.44-15.16,18.46-15.16,18.46-.02,.03-.02,5.37,3.75,16.57,.73,2.17,.16,4.57-1.49,6.16-5.71,5.53-17.36,18.1-5.87,18.66,0,0,60.42-2.16,87.4-50.36,0,0,4.67-11.15-6.12-9.35l-17.38,4.35c-1.6,.4-3.29-.15-4.35-1.41l-4.04-4.82c-2.57-3.07-6.3-4.96-10.3-5.17-5.96-.31-15.3-.16-26.44,6.91Z" fill="#f69074" stroke="#002346" stroke-miterlimit="10"></path>
    <ellipse cx="433.73" cy="130.81" rx="5.5" ry="7.5" transform="translate(-7.3 234.39) rotate(-30)" fill="#f1b2c0" stroke="#002346" stroke-miterlimit="10"></ellipse>
    <path d="M426.59,83.37s-16.97,27.09-53.66,33.01" fill="none" stroke="#002346" stroke-linecap="round" stroke-linejoin="round"></path>
    <path d="M470.77,177.37s12.25-22.35,32.43-11.04c4.22,2.36,7.75,5.77,10.52,9.73,8.91,12.72,27.15,48.23-4.94,94.2" fill="none" stroke="#002346" stroke-linecap="round" stroke-linejoin="round"></path>
    <path d="M569.16,217.01s-10.97,34.56-44.45,56.43" fill="none" stroke="#002346" stroke-linecap="round" stroke-linejoin="round"></path>
    <path d="M586.38,227.46s-8.15,22.85-26.15,37.85" fill="none" stroke="#002346" stroke-linecap="round" stroke-linejoin="round"></path>
    <path d="M411.05,156.94l-54.64,55.19c-.07,.07-.2,.03-.21-.08-3.19-30.26-23.07-37.12-25.35-37.84-.07-.02-.07-.12,0-.15l70.95-31.2c1.56-.72,3.3-.97,5-.7,2.38,.32,4.48,1.71,5.7,3.77,2.06,3.58,1.47,8.09-1.45,11.01Z" fill="#fbe493" stroke="#002346" stroke-miterlimit="10"></path>
    <path d="M347.77,166.62s16.5,9,23.1,31.55l23.41-24s-11-17.6-19.59-19.37l-26.92,11.82Z" fill="#fff" stroke="#002346" stroke-miterlimit="10"></path>
    <path d="M405.97,225.36c-2.27,4.04-6.21,11.38-9.57,19.51-5.29-4.37-20.4-18.48-23.22-39,0,0,.24-18.16-9.21-33.18-1.02-1.35-1.76-2.89-2.18-4.53-.28-1.75,.45-3.27,4.06-3.08,0,0,5.51-5.4,13.78,0,3.33,1.21,6.31,3.21,8.7,5.83l.73-.44s-5.95-15.08-1.74-16.61c0,0,2.46-.73,4.35,5.22l3.77,14.58s1.75,5.22,1.45,15.95c0,0,1.63,24.79,7,33.91,.25,.42,.9,.95,1.58,1.47,.17,.12,.34,.25,.5,.37Z" fill="#f1b2c0" stroke="#002346" stroke-miterlimit="10"></path>
    <path d="M365.85,165.08s7.91,6.06,10.9,18.4" fill="none" stroke="#002346" stroke-linecap="round" stroke-linejoin="round"></path>
    <path d="M372.18,162.68s8.8,5.82,11.67,17.48" fill="none" stroke="#002346" stroke-linecap="round" stroke-linejoin="round"></path>
    <path d="M383.85,167.16s4.37,5.16,6.63,10.91" fill="none" stroke="#002346" stroke-linecap="round" stroke-linejoin="round"></path>
    <path d="M355.26,213.68c-4.01,2.06-8.71-.45-12.37-3.43-3.64-2.96-6.58-6.7-8.82-10.82-8.42-15.47-5.54-22.39-4.08-24.52,.33-.49,.96-.67,1.51-.47,4.14,1.5,21.67,9.43,25.05,36.72,.13,1.02-.38,2.05-1.3,2.52Z" fill="#fff" stroke="#002346" stroke-miterlimit="10"></path>
    <ellipse cx="344.55" cy="193.14" rx="4.31" ry="15.1" transform="translate(-49.93 213.24) rotate(-32.19)" fill="#e6e7e8" stroke="#002346" stroke-miterlimit="10"></ellipse>
    <path d="M335.71,145.77s11.14,6.04,15.08,12.04" fill="none" stroke="#002346" stroke-linecap="round" stroke-linejoin="round"></path>
    <path d="M357.23,156.31s-1.95-6.24-8.47-15.62" fill="none" stroke="#002346" stroke-linecap="round" stroke-linejoin="round"></path>
    <line x1="328.33" y1="144.87" x2="329.23" y2="150.31" fill="none" stroke="#002346" stroke-linecap="round" stroke-linejoin="round"></line>
    <path d="M568.54,410.25s8.19-57.01-8.31-120.73" fill="none" stroke="#002346" stroke-linecap="round" stroke-linejoin="round"></path>
    <rect x="479.92" y="341.26" width="44.21" height="74.99" rx="22.1" ry="22.1" transform="translate(118.6 -119.71) rotate(15.4)" fill="#f1b2c0" stroke="#002346" stroke-miterlimit="10"></rect>
    <path d="M514.95,334.65s27.06,6.41,25.61,26.65c0,0,13.22,4.39,5.79,16.76,0,0-7.4,11.17-14.63,17l-9.09-12.69s1.48-4.54,1.78-12.59c.07-1.86-.55-3.66-1.72-5.11-5.3-6.62-21.4-24.61-32.46-14.36-1.46,1.8-3.89,4.96-5,7,0,0-3.72-19.18,5.77-20.4,0,0,11.67-13.92,23.95-2.26Z" fill="#002346" stroke="#002346" stroke-miterlimit="10"></path>
    <ellipse cx="525.19" cy="391.08" rx="10.28" ry="7.68" transform="translate(-25.85 744.8) rotate(-69.37)" fill="#f1b2c0" stroke="#002346" stroke-miterlimit="10"></ellipse>
    <line x1="600.96" y1="450.67" x2="651.04" y2="504.09" fill="none" stroke="#002346" stroke-linecap="round" stroke-linejoin="round"></line>
    <path d="M562.9,431.77s8.13-1.27,12.48,3.39" fill="none" stroke="#002346" stroke-linecap="round" stroke-linejoin="round"></path>
    <path d="M551.55,440.01s15.61-3.18,22.15,3.56" fill="none" stroke="#002346" stroke-linecap="round" stroke-linejoin="round"></path>
    <path d="M548.62,447.22s14.3-1.93,21.95,2.08" fill="none" stroke="#002346" stroke-linecap="round" stroke-linejoin="round"></path>
    <path d="M461.25,565.04s.19,28.11,12.23,55.94" fill="none" stroke="#002346" stroke-linecap="round" stroke-linejoin="round"></path>
    <path d="M587.52,582.81s-48.93,19.33-73.97,38.17" fill="none" stroke="#002346" stroke-linecap="round" stroke-linejoin="round"></path>
    <path d="M667.52,495.37s40.63-15.26,85.06-21.16" fill="none" stroke="#002346" stroke-linecap="round" stroke-linejoin="round"></path>
    <line x1="679.71" y1="461.85" x2="664.69" y2="489.44" fill="none" stroke="#002346" stroke-linecap="round" stroke-linejoin="round"></line>
    <polyline points="706.85 464.63 689.07 488.27 718.37 506.35" fill="none" stroke="#002346" stroke-linecap="round" stroke-linejoin="round"></polyline>
    <polyline points="752.58 491.63 718.37 480.5 741.02 457.31" fill="none" stroke="#002346" stroke-linecap="round" stroke-linejoin="round"></polyline>
    <line x1="668.14" y1="502.8" x2="695.02" y2="526.31" fill="none" stroke="#002346" stroke-linecap="round" stroke-linejoin="round"></line>
    <path d="M659.02,431.31c.41-.79,51.5-81.5,97.5-123.5" fill="none" stroke="#002346" stroke-linecap="round" stroke-linejoin="round"></path>
    <polyline points="718.37 317.74 714.01 354.4 756.52 346" fill="none" stroke="#002346" stroke-linecap="round" stroke-linejoin="round"></polyline>
    <polyline points="687.51 354.4 685.84 391.72 724.52 383.81" fill="none" stroke="#002346" stroke-linecap="round" stroke-linejoin="round"></polyline>
    <path d="M375.2,320.99s44.49,32.63,72.9,63.23" fill="none" stroke="#002346" stroke-linecap="round" stroke-linejoin="round"></path>
    <polyline points="390.48 320.99 393.98 335.47 382.36 335.47" fill="none" stroke="#002346" stroke-linecap="round" stroke-linejoin="round"></polyline>
    <path d="M427.37,335.47c.15,1.34,10.12,37.9,10.12,37.9l-33.97-7.56" fill="none" stroke="#002346" stroke-linecap="round" stroke-linejoin="round"></path>
  </g>
  <g>
    <g>
      <path d="M71.38,450.01l-10.22-38.02-.06-.22c0-.34,.21-.5,.62-.5h5.5c.41,0,.67,.19,.79,.56l6.4,25.61c.04,.11,.09,.17,.17,.17s.13-.06,.17-.17l6.12-25.61c.11-.37,.36-.56,.73-.56h5.39c.41,0,.67,.19,.79,.56l6.51,25.67c.04,.11,.09,.17,.17,.17s.13-.06,.17-.17l6.29-25.67c.11-.37,.37-.56,.79-.56h5.22c.52,0,.73,.24,.62,.73l-9.72,38.02c-.11,.38-.38,.56-.79,.56h-5.22c-.41,0-.67-.19-.79-.56l-6.57-26.79c-.04-.11-.09-.18-.17-.2-.08-.02-.13,.05-.17,.2l-6.29,26.79c-.11,.38-.36,.56-.73,.56h-4.94c-.41,0-.67-.19-.79-.56Z" fill="#002346"></path>
      <path d="M139.03,416.68c-.13,.13-.29,.2-.48,.2h-19.15c-.19,0-.28,.09-.28,.28v10.5c0,.19,.09,.28,.28,.28h12.86c.19,0,.35,.07,.48,.2,.13,.13,.2,.29,.2,.48v4.27c0,.19-.07,.35-.2,.48-.13,.13-.29,.2-.48,.2h-12.86c-.19,0-.28,.09-.28,.28v10.84c0,.19,.09,.28,.28,.28h19.15c.19,0,.35,.07,.48,.2,.13,.13,.2,.29,.2,.48v4.27c0,.19-.07,.35-.2,.48-.13,.13-.29,.2-.48,.2h-25.27c-.19,0-.35-.06-.48-.2-.13-.13-.2-.29-.2-.48v-37.96c0-.19,.06-.35,.2-.48s.29-.2,.48-.2h25.27c.19,0,.35,.07,.48,.2,.13,.13,.2,.29,.2,.48v4.27c0,.19-.07,.35-.2,.48Z" fill="#002346"></path>
      <path d="M151.58,411.48c.07,.15,.07,.34,0,.56l-4.44,10.95c-.11,.34-.38,.51-.79,.51h-3.82c-.22,0-.38-.07-.48-.2-.09-.13-.12-.31-.08-.53l3.15-10.95c.11-.37,.37-.56,.79-.56h5.17c.26,0,.43,.08,.51,.22Z" fill="#002346"></path>
      <path d="M177.3,450.06l-7.41-16.17c-.08-.15-.19-.22-.34-.22h-6.74c-.19,0-.28,.09-.28,.28v15.95c0,.19-.07,.35-.2,.48s-.29,.2-.48,.2h-5.17c-.19,0-.35-.06-.48-.2-.13-.13-.2-.29-.2-.48v-37.96c0-.19,.06-.35,.2-.48s.29-.2,.48-.2h15.44c2.28,0,4.31,.48,6.07,1.43,1.76,.96,3.13,2.3,4.1,4.04,.97,1.74,1.46,3.73,1.46,5.98,0,2.58-.67,4.78-1.99,6.6-1.33,1.82-3.17,3.08-5.53,3.79-.08,0-.13,.04-.17,.11-.04,.08-.04,.15,0,.22l7.92,16.34c.07,.15,.11,.26,.11,.34,0,.3-.21,.45-.62,.45h-5.39c-.38,0-.64-.17-.79-.51Zm-14.77-32.91v11.18c0,.19,.09,.28,.28,.28h8.42c1.8,0,3.25-.53,4.35-1.6,1.1-1.07,1.66-2.48,1.66-4.24s-.55-3.18-1.66-4.27c-1.1-1.08-2.56-1.63-4.35-1.63h-8.42c-.19,0-.28,.09-.28,.28Z" fill="#002346"></path>
      <path d="M216.87,416.68c-.13,.13-.29,.2-.48,.2h-19.15c-.19,0-.28,.09-.28,.28v10.5c0,.19,.09,.28,.28,.28h12.86c.19,0,.35,.07,.48,.2,.13,.13,.2,.29,.2,.48v4.27c0,.19-.07,.35-.2,.48-.13,.13-.29,.2-.48,.2h-12.86c-.19,0-.28,.09-.28,.28v10.84c0,.19,.09,.28,.28,.28h19.15c.19,0,.35,.07,.48,.2,.13,.13,.2,.29,.2,.48v4.27c0,.19-.07,.35-.2,.48-.13,.13-.29,.2-.48,.2h-25.27c-.19,0-.35-.06-.48-.2-.13-.13-.2-.29-.2-.48v-37.96c0-.19,.06-.35,.2-.48s.29-.2,.48-.2h25.27c.19,0,.35,.07,.48,.2,.13,.13,.2,.29,.2,.48v4.27c0,.19-.07,.35-.2,.48Z" fill="#002346"></path>
    </g>
    <g>
      <path d="M93.94,466.76c.23-.23,.55-.34,.95-.34h13.63c.4,0,.72,.12,.95,.34,.23,.23,.34,.55,.34,.95v57.79c0,.4-.12,.72-.34,.95-.23,.23-.55,.34-.95,.34h-13.63c-.4,0-.72-.11-.95-.34-.23-.23-.34-.55-.34-.95v-21.91c0-.29-.14-.43-.43-.43h-13.46c-.29,0-.43,.14-.43,.43v21.91c0,.4-.12,.72-.34,.95-.23,.23-.55,.34-.95,.34h-13.63c-.4,0-.72-.11-.95-.34-.23-.23-.34-.55-.34-.95v-57.79c0-.4,.11-.72,.34-.95s.55-.34,.95-.34h13.63c.4,0,.72,.12,.95,.34,.23,.23,.34,.55,.34,.95v21.13c0,.29,.14,.43,.43,.43h13.46c.29,0,.43-.14,.43-.43v-21.13c0-.4,.11-.72,.34-.95Z" fill="#002346"></path>
      <path d="M124.73,526.44c-.23-.23-.34-.55-.34-.95v-57.79c0-.4,.11-.72,.34-.95s.55-.34,.95-.34h13.63c.4,0,.72,.12,.95,.34,.23,.23,.34,.55,.34,.95v57.79c0,.4-.12,.72-.34,.95-.23,.23-.55,.34-.95,.34h-13.63c-.4,0-.72-.11-.95-.34Z" fill="#002346"></path>
      <path d="M186.23,525.84l-9.49-21.91c-.12-.23-.29-.34-.52-.34h-3.62c-.29,0-.43,.14-.43,.43v21.48c0,.4-.12,.72-.34,.95-.23,.23-.55,.34-.95,.34h-13.63c-.4,0-.72-.11-.95-.34-.23-.23-.34-.55-.34-.95v-57.79c0-.4,.11-.72,.34-.95s.55-.34,.95-.34h26.13c3.91,0,7.34,.81,10.31,2.41,2.96,1.61,5.26,3.87,6.9,6.77,1.64,2.9,2.46,6.25,2.46,10.05s-.94,7.12-2.8,9.96c-1.87,2.85-4.44,4.93-7.72,6.25-.29,.12-.37,.32-.26,.6l10.95,22.77c.11,.35,.17,.55,.17,.6,0,.29-.12,.52-.34,.69-.23,.17-.52,.26-.86,.26h-14.49c-.75,0-1.24-.32-1.47-.95Zm-14.06-45.11v10.09c0,.29,.14,.43,.43,.43h8.11c1.84,0,3.33-.5,4.48-1.51,1.15-1.01,1.73-2.31,1.73-3.92s-.58-3-1.73-4.01c-1.15-1-2.65-1.51-4.48-1.51h-8.11c-.29,0-.43,.14-.43,.43Z" fill="#002346"></path>
      <path d="M217.96,526.44c-.23-.23-.34-.55-.34-.95v-57.79c0-.4,.11-.72,.34-.95s.55-.34,.95-.34h13.63c.4,0,.72,.12,.95,.34,.23,.23,.34,.55,.34,.95v57.79c0,.4-.12,.72-.34,.95-.23,.23-.55,.34-.95,.34h-13.63c-.4,0-.72-.11-.95-.34Z" fill="#002346"></path>
      <path d="M283.34,466.76c.23-.23,.55-.34,.95-.34h13.63c.4,0,.72,.12,.95,.34,.23,.23,.34,.55,.34,.95v57.79c0,.4-.12,.72-.34,.95-.23,.23-.55,.34-.95,.34h-13.02c-.69,0-1.21-.29-1.55-.86l-17.59-29.32c-.12-.17-.23-.24-.35-.22-.12,.03-.17,.16-.17,.39l.17,28.72c0,.4-.12,.72-.34,.95-.23,.23-.55,.34-.95,.34h-13.63c-.4,0-.72-.11-.95-.34-.23-.23-.34-.55-.34-.95v-57.79c0-.4,.11-.72,.34-.95s.55-.34,.95-.34h13.02c.69,0,1.21,.29,1.55,.86l17.51,29.32c.11,.17,.23,.25,.34,.22,.11-.03,.17-.16,.17-.39l-.09-28.72c0-.4,.11-.72,.34-.95Z" fill="#002346"></path>
      <path d="M325.12,524.63c-3.59-1.9-6.38-4.57-8.37-8.02-1.98-3.45-2.98-7.42-2.98-11.9v-16.3c0-4.49,.99-8.44,2.98-11.86,1.98-3.42,4.77-6.08,8.37-7.98,3.59-1.9,7.75-2.85,12.46-2.85s8.71,.91,12.33,2.72c3.62,1.81,6.43,4.27,8.41,7.37,1.98,3.11,2.98,6.5,2.98,10.18v.09c0,.4-.12,.72-.34,.95-.23,.23-.55,.34-.95,.34h-13.54c-.86,0-1.29-.26-1.29-.78,0-1.9-.68-3.54-2.03-4.92-1.35-1.38-3.21-2.07-5.56-2.07s-4.14,.76-5.52,2.29-2.07,3.55-2.07,6.08v17.25c0,2.47,.79,4.48,2.37,6.04,1.58,1.55,3.55,2.33,5.91,2.33,2.13,0,3.87-.59,5.22-1.77,1.35-1.18,2.03-2.8,2.03-4.87v-1.12c0-.29-.14-.43-.43-.43h-7.59c-.4,0-.72-.11-.95-.34-.23-.23-.35-.55-.35-.95v-10.35c0-.4,.11-.72,.35-.95,.23-.23,.55-.34,.95-.34h22.51c.4,0,.72,.12,.95,.34,.23,.23,.34,.55,.34,.95v11.82c0,4.26-.99,8.05-2.98,11.38-1.98,3.33-4.77,5.92-8.37,7.76-3.59,1.84-7.72,2.76-12.38,2.76s-8.87-.95-12.46-2.85Z" fill="#002346"></path>
    </g>
  </g>
</svg>
