<?xml version="1.0" standalone="no"?>
<!DOCTYPE svg PUBLIC "-//W3C//DTD SVG 20010904//EN"
 "http://www.w3.org/TR/2001/REC-SVG-20010904/DTD/svg10.dtd">
<svg version="1.0" xmlns="http://www.w3.org/2000/svg"
 width="500.000000pt" height="500.000000pt" viewBox="0 0 500.000000 500.000000"
 preserveAspectRatio="xMidYMid meet">

<g transform="translate(0.000000,500.000000) scale(0.100000,-0.100000)"
fill="#000000" stroke="none">
<path d="M3140 3055 l0 -75 110 0 110 0 0 75 0 75 -110 0 -110 0 0 -75z"/>
<path d="M1640 2540 l0 -540 110 0 110 0 2 208 3 207 65 -207 64 -208 118 0
118 0 -10 26 -10 26 30 -26 c35 -29 85 -41 137 -33 40 7 67 27 94 72 l19 30 0
-47 0 -48 435 0 435 0 0 460 0 460 -325 0 -325 0 0 -82 0 -83 -19 40 c-49 105
-179 155 -326 125 -116 -23 -166 -82 -180 -207 l-7 -63 111 0 111 0 0 43 c0
46 13 67 41 67 31 0 49 -40 49 -107 l0 -62 -40 -11 c-71 -19 -182 -68 -208
-92 -43 -40 -65 -104 -70 -207 l-5 -94 -57 165 -58 165 69 199 c38 109 69 200
69 201 0 2 -51 3 -113 3 l-112 0 -52 -152 -51 -153 -1 233 -1 232 -110 0 -110
0 0 -540z m1280 197 c0 -15 -197 -547 -205 -555 -3 -3 -5 124 -5 281 l0 287
105 0 c80 0 105 -3 105 -13z m220 -302 l0 -275 -101 0 c-77 0 -100 3 -97 13 3
6 47 130 99 275 51 144 94 262 96 262 2 0 3 -124 3 -275z m-665 -251 c-18 -28
-47 -31 -66 -8 -19 23 -24 179 -7 229 8 25 26 48 48 63 l35 23 3 -142 c2 -115
0 -146 -13 -165z"/>
<path d="M3404 2196 c-31 -31 -34 -40 -34 -91 0 -51 3 -60 34 -91 31 -31 40
-34 91 -34 51 0 60 3 91 34 31 31 34 39 34 91 0 53 -3 60 -36 91 -31 30 -42
34 -91 34 -49 0 -59 -4 -89 -34z"/>
</g>
</svg>
