<?xml version="1.0" encoding="UTF-8"?>
<svg xmlns="http://www.w3.org/2000/svg" id="a" width="865.76" height="682.89" viewBox="0 0 865.76 682.89">
  <rect x="578.97" y="70.69" width="227.46" height="471.18" rx="7.06" ry="7.06" fill="#f2f2f2"></rect>
  <path d="M799.38,542.36h-213.35c-4.17,0-7.55-3.39-7.56-7.56V77.8c0-4.17,3.39-7.55,7.56-7.56h213.35c4.17,0,7.55,3.39,7.55,7.56v457c0,4.17-3.38,7.55-7.55,7.56ZM586.03,71.19c-3.62,0-6.56,2.94-6.56,6.56v457.05c0,3.62,2.94,6.56,6.56,6.56h213.35c3.62,0,6.55-2.94,6.55-6.56V77.8c0-3.62-2.93-6.55-6.55-6.56l-213.35-.05Z" fill="#002346"></path>
  <rect x="154.83" y="70.69" width="227.46" height="471.18" rx="7.06" ry="7.06" fill="#f2f2f2"></rect>
  <path d="M375.23,542.36H161.89c-4.17,0-7.55-3.39-7.56-7.56V77.8c0-4.17,3.39-7.55,7.56-7.56h213.34c4.17,0,7.55,3.39,7.56,7.56v457c0,4.17-3.39,7.55-7.56,7.56h0ZM161.89,71.19c-3.62,0-6.56,2.94-6.56,6.56v457.05c0,3.62,2.94,6.56,6.56,6.56h213.34c3.62,0,6.56-2.94,6.56-6.56V77.8c0-3.62-2.94-6.56-6.56-6.56l-213.34-.05h0Z" fill="#002346"></path>
  <path d="M350.23,186.14c0,45.63-36.68,82.79-82.31,83.37h-1.07c-27.67,0-53.54-13.71-69.06-36.62h0c-25.79-38.15-15.76-89.98,22.39-115.77,38.15-25.79,89.98-15.76,115.77,22.39,9.32,13.79,14.3,30.04,14.3,46.68l-.02-.05Z" fill="#fff"></path>
  <path d="M266.85,270.02c-23.45,.01-45.83-9.8-61.71-27.06-2.83-3.08-5.42-6.35-7.77-9.81-25.97-38.37-15.92-90.52,22.45-116.5,38.37-25.97,90.52-15.92,116.5,22.45,25.97,38.37,15.92,90.52-22.45,116.5-13.58,9.19-29.55,14.2-45.95,14.41h-1.07Zm0-166.75c-45.78-.18-83.04,36.78-83.22,82.56-.17,41.52,30.42,76.76,71.55,82.44,3.87,.54,7.77,.82,11.67,.82h1.07c32.34-.45,61.47-19.65,74.64-49.18,18.63-41.85-.2-90.88-42.05-109.51-10.59-4.72-22.06-7.16-33.66-7.17v.04h0Z" fill="#002346"></path>
  <rect x="172.14" y="296.87" width="192.83" height="229.17" fill="#fff"></rect>
  <path d="M365.47,526.54H171.64v-230.17h193.83v230.17Zm-192.83-1h191.83v-228.17H172.64v228.17Z" fill="#002346"></path>
  <rect x="183.12" y="318.58" width="165.4" height="1" fill="#002346"></rect>
  <rect x="183.12" y="339.49" width="165.4" height="1" fill="#002346"></rect>
  <rect x="183.12" y="363.3" width="165.4" height="1" fill="#002346"></rect>
  <rect x="183.12" y="384.21" width="165.4" height="1" fill="#002346"></rect>
  <rect x="183.12" y="404.82" width="165.4" height="1" fill="#002346"></rect>
  <rect x="183.12" y="425.73" width="165.4" height="1" fill="#002346"></rect>
  <rect x="183.12" y="446.35" width="165.4" height="1" fill="#002346"></rect>
  <rect x="183.12" y="467.25" width="165.4" height="1" fill="#002346"></rect>
  <rect x="183.12" y="488.01" width="165.4" height="1" fill="#002346"></rect>
  <rect x="230.93" y="511.17" width="117.58" height="1" fill="#002346"></rect>
  <path d="M290.16,189.16c13.74-12.63,14.63-33.99,2.01-47.73-12.63-13.74-33.99-14.63-47.73-2.01-13.74,12.63-14.63,33.99-2.01,47.73,.56,.6,1.13,1.19,1.73,1.75-21.18,8.71-36.59,29.23-38.61,53.72,15.79,17.15,38.03,26.9,61.34,26.9h1.07c22.94-.26,44.75-10,60.27-26.89-2.05-24.27-17.14-44.63-38.07-53.47h0Z" fill="#f2f2f2"></path>
  <path d="M266.85,270.02c-23.45,.01-45.83-9.8-61.71-27.06l-.15-.16v-.22c2-23.72,16.93-44.77,38.22-53.85-6.58-6.41-10.27-15.22-10.23-24.41,.02-18.93,15.39-34.26,34.32-34.24,18.93,.02,34.26,15.39,34.24,34.32-.01,9.28-3.78,18.16-10.45,24.6,21.27,9.32,35.66,29.78,37.62,53.58v.22l-.15,.16c-15.65,16.94-37.57,26.72-60.63,27.05h-1.08Zm-60.82-27.56c12.94,13.98,30.29,23.08,49.15,25.76,3.87,.54,7.77,.82,11.67,.82h1.07c22.71-.32,44.3-9.92,59.75-26.57-2-23.59-16.46-43.82-37.7-52.82l-.72-.3,.58-.53c13.52-12.45,14.38-33.51,1.93-47.03s-33.51-14.38-47.03-1.93c-6.84,6.3-10.73,15.18-10.73,24.48-.03,9.18,3.76,17.95,10.46,24.22l.57,.53-.72,.29c-21.22,8.73-36.22,29.52-38.28,53.07h0Z" fill="#002346"></path>
  <path d="M774.38,186.14c0,45.62-36.67,82.77-82.29,83.37h-1.1c-23.31,0-45.55-9.75-61.34-26.9-2.81-3.06-5.39-6.32-7.72-9.75h0c-25.79-38.15-15.76-89.98,22.39-115.77,38.15-25.79,89.98-15.76,115.77,22.39,9.32,13.79,14.3,30.04,14.3,46.68v-.02h-.01Z" fill="#fff"></path>
  <path d="M690.99,270.02c-27.84,0-53.86-13.82-69.47-36.87-25.97-38.37-15.92-90.53,22.45-116.5s90.53-15.92,116.5,22.45c25.97,38.37,15.92,90.53-22.45,116.5-13.57,9.19-29.54,14.2-45.93,14.41h-1.1Zm0-166.75c-45.78-.18-83.04,36.78-83.22,82.56-.17,41.52,30.42,76.76,71.55,82.44,3.87,.54,7.77,.82,11.67,.82h1.1c22.79-.33,44.44-9.99,59.9-26.73,30.99-33.68,28.81-86.11-4.87-117.11-15.3-14.08-35.34-21.89-56.13-21.89v-.09h0Z" fill="#002346"></path>
  <rect x="596.29" y="296.87" width="192.83" height="229.17" fill="#fff"></rect>
  <path d="M789.62,526.54h-193.83v-230.17h193.83v230.17Zm-192.83-1h191.83v-228.17h-191.83v228.17Z" fill="#002346"></path>
  <rect x="607.26" y="318.58" width="165.4" height="1" fill="#002346"></rect>
  <rect x="607.26" y="339.49" width="165.4" height="1" fill="#002346"></rect>
  <rect x="607.26" y="363.3" width="165.4" height="1" fill="#002346"></rect>
  <rect x="607.26" y="384.21" width="165.4" height="1" fill="#002346"></rect>
  <rect x="607.26" y="404.82" width="165.4" height="1" fill="#002346"></rect>
  <rect x="607.26" y="425.73" width="165.4" height="1" fill="#002346"></rect>
  <rect x="607.26" y="446.35" width="165.4" height="1" fill="#002346"></rect>
  <rect x="607.26" y="467.25" width="165.4" height="1" fill="#002346"></rect>
  <rect x="607.26" y="488.01" width="165.4" height="1" fill="#002346"></rect>
  <rect x="655.08" y="511.17" width="117.58" height="1" fill="#002346"></rect>
  <path d="M714.31,189.16c13.72-12.64,14.6-34.01,1.96-47.73-12.64-13.72-34.01-14.6-47.73-1.96-13.72,12.64-14.6,34.01-1.96,47.73,.54,.59,1.1,1.15,1.68,1.7-21.18,8.71-36.58,29.23-38.61,53.72,15.79,17.15,38.03,26.9,61.34,26.9h1.1c22.94-.26,44.75-10,60.27-26.89-2.03-24.27-17.18-44.63-38.05-53.47h0Z" fill="#f2f2f2"></path>
  <path d="M690.99,270.02c-23.45,.01-45.83-9.8-61.7-27.06l-.15-.16v-.22c1.95-23.69,16.95-44.77,38.23-53.85-6.57-6.42-10.26-15.22-10.23-24.41,0-18.93,15.35-34.28,34.28-34.28s34.28,15.35,34.28,34.28c0,9.31-3.79,18.22-10.49,24.68,21.26,9.32,35.65,29.78,37.62,53.58v.22l-.15,.16c-15.64,16.93-37.54,26.7-60.59,27.05h-1.1Zm-60.82-27.56c12.94,13.98,30.29,23.08,49.15,25.76,3.87,.54,7.77,.82,11.67,.82h1.1c22.71-.32,44.3-9.92,59.75-26.57-2-23.59-16.45-43.82-37.7-52.82l-.71-.3,.57-.53c13.52-12.45,14.38-33.51,1.93-47.03s-33.51-14.38-47.03-1.93c-6.84,6.3-10.73,15.18-10.73,24.48-.03,9.18,3.76,17.95,10.47,24.22l.56,.53-.72,.29c-21.28,8.73-36.28,29.52-38.31,53.07h0Z" fill="#002346"></path>
  <rect x="357.49" y="53.58" width="252.26" height="507.09" rx="9.93" ry="9.93" fill="#f2f2f2"></rect>
  <path d="M599.83,561.18h-232.41c-5.76,0-10.42-4.67-10.43-10.43V63.51c0-5.76,4.67-10.42,10.43-10.43h232.41c5.76,0,10.42,4.67,10.42,10.43v487.24c0,5.76-4.66,10.42-10.42,10.43ZM367.42,54.08c-5.21,0-9.42,4.22-9.43,9.43v487.24c0,5.21,4.22,9.42,9.43,9.43h232.41c5.2,0,9.42-4.23,9.42-9.43V63.51c0-5.2-4.22-9.42-9.42-9.43,0,0-232.41,0-232.41,0Z" fill="#002346"></path>
  <path d="M572.09,178.43c.04,48.22-38.73,87.49-86.95,88.07h-1.05c-4.15,0-8.29-.29-12.4-.87-24.64-3.47-46.66-17.22-60.6-37.83h0c-27.29-40.27-16.76-95.04,23.52-122.32s95.04-16.76,122.32,23.52c9.89,14.6,15.17,31.83,15.16,49.47v-.03h0Z" fill="#fff"></path>
  <path d="M484.09,267.01c-49.12-.31-88.69-40.39-88.38-89.52,.31-49.12,40.39-88.69,89.52-88.38,49.12,.31,88.69,40.39,88.38,89.52-.31,48.68-39.7,88.07-88.38,88.38h-1.14Zm0-176.12c-48.37,0-87.58,39.2-87.59,87.57,0,48.37,39.2,87.58,87.57,87.59h1.15c34.14-.51,64.9-20.75,78.87-51.91,19.67-44.23-.24-96.02-44.47-115.69-11.19-4.97-23.29-7.55-35.53-7.56Z" fill="#002346"></path>
  <ellipse cx="512.19" cy="162.11" rx="17.33" ry="17.25" transform="translate(217.75 611.46) rotate(-74.33)" fill="#002346"></ellipse>
  <path d="M496.09,168.17l1.41,20.86-15.69,12-12.85-9.57v-9.7s16.92,1.8,27.13-13.59Z" fill="#f2b3c1"></path>
  <path d="M481.81,201.61l-13.36-9.94v-10.5l.55,.06c.17,0,16.76,1.61,26.66-13.34l.82-1.23,1.52,22.6-16.19,12.35h0Zm-12.36-10.44l12.35,9.19,15.17-11.57-1.29-19.16c-9.25,12.72-23.28,12.77-26.23,12.63v8.91h0Z" fill="#002346"></path>
  <path d="M512.23,192.65c-4.31,24.47-27.08,73.72-27.08,73.72l-.15,.13h-1c-4.15,0-8.29-.29-12.4-.87-8.12-20.54-14.78-66.68-14.78-66.68l12.08-7.54,12.85,9.56,15.69-12,14.79,3.68h0Z" fill="#f2f2f2"></path>
  <path d="M484.09,267.01c-4.17,0-8.34-.29-12.47-.88h-.29l-.1-.27c-8.06-20.36-14.75-66.33-14.82-66.79v-.33l12.65-7.88,12.83,9.54,15.57-11.88,15.43,3.79-.08,.46c-4.27,24.26-26.89,73.35-27.12,73.85l-.11,.15-.29,.27h-1.2v-.03h0Zm-12-1.83c3.98,.55,7.99,.83,12,.83,.24,.02,.47,.02,.71,0,1.37-3,22.56-49.37,26.89-73l-14.05-3.45-15.79,12-12.89-9.58-11.51,7.18c.57,4.18,6.95,46.55,14.56,66.02h.08Z" fill="#002346"></path>
  <g>
    <path d="M471.65,265.64c-7.97-1.12-15.75-3.34-23.12-6.59-.05-.03-.1-.05-.15-.07-.35-.15-.69-.3-1-.46-.59-.26-1.17-.53-1.75-.82l-.12-.06c-13.88-6.77-25.75-17.06-34.42-29.84h0l7.61-8.59c5.29-5.97,11.98-10.55,19.47-13.32l18.29-6.75,.41-.15c7.87,51.27,14.78,66.65,14.78,66.65h0Z" fill="#fbe493"></path>
    <path d="M472.48,266.26l-.9-.13c-8.02-1.12-15.84-3.35-23.25-6.63l-.14-.07c-.36-.16-.71-.31-1.03-.48-.57-.25-1.16-.52-1.74-.82l-.12-.06c-13.94-6.79-25.91-17.17-34.61-30.01l-.22-.32,7.87-8.88c5.33-6.02,12.13-10.67,19.67-13.46l19.27-7.11,.09,.6c7.76,50.57,14.67,66.37,14.74,66.52l.37,.83v.02Zm-60.75-38.42c8.59,12.54,20.34,22.69,34.01,29.35l.12,.06c.57,.29,1.15,.55,1.73,.81,.33,.17,.66,.31,1,.46,.05,0,.15,.06,.24,.12,6.98,3.07,14.42,5.23,22.04,6.38-1.47-3.8-7.61-21.36-14.39-65.35l-18.13,6.69c-7.38,2.73-14.05,7.29-19.27,13.18l-7.35,8.3h0Z" fill="#002346"></path>
  </g>
  <path d="M472.48,266.26l-.9-.13c-8.02-1.11-15.85-3.35-23.25-6.63l-.15-.06-1-.46c-.59-.27-1.17-.54-1.76-.83l.11-.5-.19,.46c-13.96-6.81-25.9-17.15-34.62-30l-.22-.32,.24-.32,7.61-8.59c5.35-6.04,12.11-10.66,19.68-13.46l19.27-7.12,.09,.61c7.7,50.57,14.7,66.37,14.7,66.52l.39,.83h0Zm-26.78-9.07l.16,.08c.55,.26,1.12,.54,1.7,.8l1,.45,.19,.08c7.05,3.12,14.48,5.28,22.1,6.42-1.47-3.8-7.61-21.36-14.39-65.38l-18.12,6.69c-7.4,2.74-14.01,7.27-19.25,13.18l-7.36,8.3c8.59,12.57,20.3,22.69,33.97,29.38h0Z" fill="#002346"></path>
  <path d="M471.65,265.64c-7.94-1.28-15.7-3.49-23.12-6.59-.05-.03-.1-.05-.15-.07-.38-.16-.72-.32-1-.46-.92-.41-1.51-.7-1.75-.82l-.12-.06,9.06-23.3-11.55-3.69,9.41-30,4.05-1.56,.41-.15c7.85,51.32,14.76,66.7,14.76,66.7h0Z" fill="#fff"></path>
  <path d="M472.49,266.28l-.92-.15c-7.98-1.28-15.78-3.51-23.24-6.62l-.15-.07-1-.46c-.92-.41-1.52-.71-1.76-.83l-.47-.18,.11-.51,8.86-22.8-11.51-3.69,9.63-30.68,5.26-2,.09,.61c7.7,50.58,14.7,66.38,14.7,66.53l.4,.85h0Zm-26.4-8.88c.3,.15,.78,.38,1.43,.67l1,.45,.19,.08c7.1,2.97,14.51,5.11,22.09,6.4-1.48-3.85-7.61-21.42-14.38-65.36l-3.65,1.41-9.19,29.27,11.58,3.71-9.07,23.37h0Z" fill="#002346"></path>
  <g>
    <path d="M564.5,214.35c-14.01,31.37-44.97,51.73-79.32,52.15v-.13s18.48-38.13,27.08-73.72l30.14,5.82c1.65,.32,3.21,1.03,4.53,2.07l17.57,13.81h0Z" fill="#fbe493"></path>
    <path d="M484.68,267l.05-.85c.18-.38,18.56-38.49,27.04-73.62l.11-.46,30.61,5.91c1.72,.33,3.36,1.08,4.74,2.17l17.88,14.05-.16,.36c-14.04,31.43-45.35,52.02-79.77,52.45h-.5Zm27.95-73.78c-7.97,32.68-24.35,67.77-26.72,72.76,33.61-.7,64.11-20.83,77.97-51.49l-17.26-13.57c-1.26-.99-2.75-1.67-4.32-1.97l-29.67-5.73h0Z" fill="#002346"></path>
  </g>
  <path d="M484.79,267.01l-.17-.7,.08-.16c.18-.38,18.56-38.49,27-73.62l.11-.47,30.62,5.92c1.73,.34,3.35,1.08,4.74,2.16l17.92,14.06-.16,.35c-14.14,31.49-45.25,51.95-79.77,52.45h-.37Zm27.81-73.76c-8,32.7-24.36,67.8-26.72,72.76,33.73-.77,64.04-20.78,78-51.49l-17.29-13.61c-1.26-1-2.73-1.69-4.31-2l-29.68-5.66Z" fill="#002346"></path>
  <path d="M519.33,227.77h-11.69l9.45,32.34s-15.35,6.38-31.87,6.39v-.13s22.77-49.25,27.08-73.72l9.05,1.75c-.09,11.15-.76,22.29-2.02,33.37h0Z" fill="#fff"></path>
  <path d="M484.79,267l-.17-.68,.07-.16c.23-.5,22.8-49.47,27-73.6l.08-.5,10,1.93v.41c-.09,11.17-.76,22.34-2,33.44v.43h-11.47l9.36,32.13-.42,.18c-.15,.06-15.63,6.41-32.06,6.42h-.39Zm27.84-73.77c-4.22,23-24.22,67.2-26.77,72.77,14.49-.16,28.06-5.2,30.58-6.18l-9.47-32.55h11.92c1.18-10.78,1.81-21.62,1.89-32.46l-8.15-1.58h0Z" fill="#002346"></path>
  <g>
    <polygon points="481.8 200.98 471.65 213.1 460.4 196.75 468.95 191.42 481.8 200.98" fill="#fbe493"></polygon>
    <path d="M471.61,213.92l-11.92-17.32,9.28-5.79,13.55,10.08-10.91,13.03h0Zm-10.5-17.03l10.58,15.38,9.39-11.21-12.15-9.04-7.82,4.87Z" fill="#002346"></path>
  </g>
  <path d="M471.61,213.89l-11.92-17.28,9.28-5.79,13.56,10.07-10.92,13h0Zm-10.52-17l10.58,15.37,9.39-11.2-12.16-9-7.81,4.83Z" fill="#002346"></path>
  <g>
    <polygon points="491.32 209.72 481.8 200.98 497.48 189.03 506.15 191.15 491.32 209.72" fill="#fbe493"></polygon>
    <path d="M491.38,210.45l-10.35-9.51,16.34-12.46,9.66,2.36-15.65,19.6h0Zm-8.8-9.43l8.68,7.97,14.01-17.54-7.68-1.88-15.01,11.44h0Z" fill="#002346"></path>
  </g>
  <path d="M491.38,210.45l-10.36-9.5,16.35-12.47,9.66,2.37-15.65,19.6h0Zm-8.8-9.43l8.68,8,14-17.54-7.67-1.88-15.01,11.42h0Z" fill="#002346"></path>
  <rect x="529.64" y="240.69" width="1" height="10.55" transform="translate(-51.31 304.83) rotate(-30.67)" fill="#002346"></rect>
  <g>
    <rect x="386.57" y="17.67" width="192.4" height="49.6" rx="7.08" ry="7.08" fill="#fbe493"></rect>
    <path d="M571.89,67.77h-178.24c-4.18,0-7.58-3.4-7.58-7.58V24.75c0-4.18,3.4-7.58,7.58-7.58h178.24c4.18,0,7.58,3.4,7.58,7.58V60.19c0,4.18-3.4,7.58-7.58,7.58ZM393.65,18.17c-3.63,0-6.58,2.95-6.58,6.58V60.19c0,3.63,2.95,6.58,6.58,6.58h178.24c3.63,0,6.58-2.95,6.58-6.58V24.75c0-3.63-2.95-6.58-6.58-6.58h-178.24Z" fill="#002346"></path>
  </g>
  <path d="M571.89,67.77h-178.24c-4.18-.02-7.55-3.4-7.56-7.58V24.75c0-4.18,3.4-7.57,7.58-7.58h178.22c4.18,0,7.57,3.4,7.58,7.58V60.19c0,4.18-3.4,7.57-7.58,7.58ZM393.65,18.17c-3.62,.02-6.55,2.96-6.56,6.58V60.19c0,3.63,2.95,6.57,6.58,6.58h178.22c3.63,0,6.57-2.95,6.58-6.58V24.75c0-3.63-2.95-6.57-6.58-6.58h-178.24Z" fill="#002346"></path>
  <rect x="379.73" y="296.44" width="210.36" height="245.42" fill="#fff"></rect>
  <path d="M590.59,542.36h-211.36v-246.42h211.36v246.42Zm-210.36-1h209.36v-244.42h-209.36v244.42Z" fill="#002346"></path>
  <rect x="391.7" y="319.73" width="180.43" height="1" fill="#002346"></rect>
  <rect x="391.7" y="342.12" width="180.43" height="1" fill="#002346"></rect>
  <rect x="391.7" y="367.62" width="180.43" height="1" fill="#002346"></rect>
  <rect x="391.7" y="390.01" width="180.43" height="1" fill="#002346"></rect>
  <rect x="391.7" y="412.08" width="180.43" height="1" fill="#002346"></rect>
  <rect x="391.7" y="434.47" width="180.43" height="1" fill="#002346"></rect>
  <rect x="391.7" y="456.55" width="180.43" height="1" fill="#002346"></rect>
  <rect x="391.7" y="478.94" width="180.43" height="1" fill="#002346"></rect>
  <rect x="391.7" y="501.17" width="180.43" height="1" fill="#002346"></rect>
  <rect x="443.86" y="525.97" width="128.27" height="1" fill="#002346"></rect>
  <circle cx="587.52" cy="298.15" r="41.9" fill="#f69074"></circle>
  <path d="M587.52,340.55c-23.42,0-42.4-18.98-42.4-42.4s18.98-42.4,42.4-42.4,42.4,18.98,42.4,42.4c-.03,23.41-18.99,42.37-42.4,42.4Zm0-83.8c-22.86,0-41.4,18.54-41.4,41.4s18.54,41.4,41.4,41.4,41.4-18.54,41.4-41.4c-.02-22.86-18.54-41.38-41.4-41.4Z" fill="#002346"></path>
  <path d="M580.96,316.4c-.45,0-.88-.15-1.23-.43l-15.82-12.4c-.92-.61-1.16-1.86-.55-2.77s1.86-1.16,2.77-.55c.08,.06,.16,.12,.23,.18l14.35,11.24,27.69-31.1c.73-.83,2-.9,2.83-.17,.83,.73,.9,2,.17,2.83h0l-28.95,32.5c-.38,.43-.93,.67-1.5,.67h.01Z" fill="#fff"></path>
  <path d="M471.65,110.88h0c15.82,0,28.64,12.83,28.64,28.65v13.68c0,15.82-12.82,28.65-28.64,28.65h0c-15.82,0-28.64-12.83-28.64-28.65v-13.68c0-15.82,12.82-28.65,28.64-28.65h0Z" fill="#f2b3c1"></path>
  <path d="M471.65,182.35c-16.09-.02-29.13-13.05-29.15-29.14v-13.69c.01-16.1,13.07-29.14,29.17-29.13,16.08,.01,29.12,13.05,29.13,29.13v13.69c-.02,16.09-13.06,29.12-29.15,29.14h0Zm0-71c-15.54,.02-28.13,12.6-28.15,28.14v13.69c.01,15.55,12.62,28.14,28.17,28.13,15.53,0,28.12-12.6,28.13-28.13v-13.66c-.02-15.54-12.61-28.12-28.15-28.14v-.03h0Z" fill="#002346"></path>
  <path d="M482.34,107.46c-43.55-5.59-39.34,32.06-39.34,32.06,4.28-14.11,20.53-23.51,20.53-23.51,0,0,6.84,21.54,36.77,27v10.18l10.3-5.57s5.09-35.89-28.26-40.16h0Z" fill="#002346"></path>
  <g>
    <ellipse cx="501.44" cy="149.4" rx="8.64" ry="6.85" transform="translate(278.57 622.79) rotate(-81.38)" fill="#f2b3c1"></ellipse>
    <path d="M500.93,158.49c-.3,0-.59-.02-.89-.07-4.01-.61-6.65-5.16-5.9-10.14,.36-2.39,1.45-4.54,3.05-6.03,1.64-1.53,3.61-2.2,5.58-1.91,1.96,.3,3.66,1.53,4.77,3.47,1.09,1.9,1.49,4.27,1.13,6.67-.7,4.61-4.07,8-7.74,8h0Zm.94-17.2c-1.41,0-2.8,.59-4,1.71-1.44,1.34-2.42,3.28-2.75,5.45-.67,4.44,1.6,8.48,5.06,9s6.82-2.66,7.5-7.1c.33-2.17-.03-4.31-1.01-6.02-.96-1.67-2.4-2.73-4.05-2.98-.25-.04-.5-.06-.75-.06Z" fill="#002346"></path>
  </g>
  <polygon points="449.42 31.45 453 38.7 461 39.87 455.21 45.51 456.58 53.48 449.42 49.72 442.26 53.48 443.63 45.51 437.84 39.87 445.84 38.7 449.42 31.45" fill="#fff"></polygon>
  <path d="M457.24,54.4l-7.82-4.12-7.82,4.12,1.49-8.71-6.33-6.17,8.75-1.27,3.91-7.93,3.91,7.93,8.76,1.27-6.33,6.17,1.48,8.71h0Zm-18.33-14.18l5.25,5.12-1.24,7.23,6.5-3.42,6.49,3.42-1.24-7.23,5.26-5.12-7.26-1.06-3.25-6.58-3.25,6.58s-7.26,1.06-7.26,1.06Z" fill="#002346"></path>
  <polygon points="481.91 31.45 485.49 38.7 493.5 39.87 487.7 45.51 489.07 53.48 481.91 49.72 474.76 53.48 476.12 45.51 470.33 39.87 478.33 38.7 481.91 31.45" fill="#fff"></polygon>
  <path d="M489.74,54.4l-7.83-4.12-7.82,4.12,1.5-8.71-6.33-6.17,8.74-1.27,3.91-7.93,3.91,7.93,8.75,1.27-6.33,6.17,1.5,8.71h0Zm-7.83-5.25l6.5,3.42-1.24-7.23,5.25-5.12-7.26-1.06-3.25-6.58-3.24,6.58-7.26,1.06,5.25,5.12-1.24,7.23,6.49-3.42Z" fill="#002346"></path>
  <polygon points="512.7 31.45 516.28 38.7 524.28 39.87 518.49 45.51 519.86 53.48 512.7 49.72 505.54 53.48 506.91 45.51 501.12 39.87 509.12 38.7 512.7 31.45" fill="#fff"></polygon>
  <path d="M520.52,54.4l-7.82-4.12-7.82,4.12,1.49-8.71-6.28-6.17,8.75-1.27,3.91-7.93,3.91,7.93,8.74,1.27-6.32,6.17,1.44,8.71h0Zm-7.82-5.25l6.49,3.42-1.24-7.23,5.26-5.12-7.26-1.06-3.25-6.58-3.25,6.58-7.26,1.06,5.25,5.12-1.24,7.23,6.5-3.42Z" fill="#002346"></path>
  <polygon points="546.9 31.45 550.48 38.7 558.48 39.87 552.69 45.51 554.06 53.48 546.9 49.72 539.74 53.48 541.11 45.51 535.32 39.87 543.32 38.7 546.9 31.45" fill="#fff"></polygon>
  <path d="M554.73,54.4l-7.83-4.12-7.81,4.12,1.5-8.71-6.33-6.17,8.74-1.27,3.91-7.93,3.91,7.93,8.75,1.27-6.33,6.17,1.49,8.71h0Zm-7.83-5.25l6.5,3.42-1.24-7.23,5.25-5.12-7.26-1.06-3.25-6.58-3.24,6.58-7.26,1.06,5.25,5.12-1.24,7.23,6.49-3.42Z" fill="#002346"></path>
  <polygon points="418.63 31.45 422.21 38.7 430.22 39.87 424.42 45.51 425.79 53.48 418.63 49.72 411.48 53.48 412.84 45.51 407.05 39.87 415.05 38.7 418.63 31.45" fill="#fff"></polygon>
  <path d="M426.46,54.4l-7.83-4.12-7.82,4.12,1.5-8.71-6.33-6.17,8.74-1.27,3.91-7.93,3.91,7.93,8.75,1.27-6.33,6.17,1.5,8.71h0Zm-7.83-5.25l6.5,3.42-1.24-7.23,5.25-5.12-7.26-1.06-3.25-6.58-3.24,6.58-7.3,1.06,5.25,5.12-1.24,7.23,6.53-3.42h0Z" fill="#002346"></path>
  <path d="M379.73,222.04l11.75-5.63,31,70c.93,2.1,.05,4.55-2,5.58h0c-2.11,1.07-4.68,.23-5.76-1.87l-34.99-68.08h0Z" fill="#002346"></path>
  <g>
    <path d="M152.26,333.21s-13.68,11.12-6.69,74.22l8.4,95.95-59.88,52.16,30.79,47.89,81.21-65.84s15.4-8.55,10.27-41.9l-9.7-86.4c-.31-2.72,1.82-5.1,4.56-5.1h0l83.87,208.7,56.44-24.8-92.94-234.36,3.38-27.36-107.14-6.14-2.57,12.98Z" fill="#fbe493"></path>
    <path d="M294.82,613.55l-83.93-208.85c-1.04,.08-2.01,.57-2.71,1.35-.77,.87-1.14,2.03-1.01,3.18l9.7,86.4c5.12,33.29-9.88,42.04-10.52,42.39l-81.57,66.14-31.33-48.72,.33-.28,59.69-51.99-8.38-95.7c-6.64-59.93,5.2-73.09,6.73-74.53l2.62-13.24,108.11,6.2-3.43,27.76,93.07,234.69-57.35,25.2h-.02Zm-83.6-209.87h.34l83.8,208.54,55.53-24.4-92.81-234.03,3.33-26.96-106.17-6.08-2.52,12.73-.14,.11c-.2,.17-13.35,12.05-6.51,73.78l8.42,96.21-59.75,52.04,30.25,47.06,80.78-65.49c.22-.13,15.1-8.88,10.09-41.44l-9.7-86.42c-.16-1.44,.3-2.88,1.26-3.96s2.35-1.7,3.79-1.7h.01Z" fill="#002346"></path>
  </g>
  <path d="M183,345.81h-.08l-34.69-5.26c-.28-.04-.47-.3-.43-.57,.04-.28,.3-.47,.57-.43l34.71,5.27c.27,.04,.46,.3,.42,.57h0c-.04,.25-.26,.43-.51,.42h0Z" fill="#002346"></path>
  <path d="M199.84,209.72l-34.42,4.63c-5.79,.76-10.97,3.99-14.2,8.86-5.8,8.84-10.47,25.75,3.61,54.42v32.7c-.02,2.85-1.39,5.52-3.7,7.19-4.27,3.16-9.45,9.22,1.13,15.69l28.22,2.57s1.71,21.37,21.38,26.51c0,0,13.62,3.79,32-6.66l70.58-29.26,6-62.42s-20.5-26.51-56.42-41.06l-54.18-13.17h0Z" fill="#f69074"></path>
  <path d="M208.4,363.43c-2.24,.04-4.49-.18-6.68-.66-18.23-4.76-21.31-23.48-21.69-26.53l-27.94-2.54-.1-.06c-4.16-2.55-6.34-5.3-6.47-8.19-.15-3.53,2.8-6.48,5.3-8.33,2.18-1.58,3.47-4.1,3.5-6.79v-32.59c-14-28.46-9.62-45.51-3.53-54.8,3.31-4.99,8.63-8.3,14.57-9.05l34.5-4.65h.1l54.18,13.17c35.7,14.45,56.51,41,56.72,41.23l.12,.16v.19l-6,62.73-.27,.11-70.62,29.27c-10.69,6.06-19.87,7.33-25.69,7.33h0Zm-56-30.71l28.53,2.6v.42c0,.21,1.92,21.08,21,26.06,.15,0,13.67,3.61,31.67-6.6l70.35-29.18,5.94-61.92c-1.75-2.19-22.15-27-56.11-40.74l-54-13.13-34.29,4.66c-5.65,.74-10.71,3.89-13.86,8.64-5.95,9.08-10.15,25.81,3.65,53.92l.05,.1v32.82c-.03,3.01-1.48,5.82-3.9,7.6-2.31,1.7-5,4.39-4.9,7.48,.11,2.44,2.09,4.93,5.89,7.27h-.02Z" fill="#002346"></path>
  <rect x="207.24" y="310.93" width="15.72" height="1" transform="translate(-102.45 105.47) rotate(-22.4)" fill="#002346"></rect>
  <rect x="167.16" y="274.9" width="1" height="63.56" transform="translate(-109.54 93.79) rotate(-23.81)" fill="#002346"></rect>
  <g>
    <path d="M222.38,230.48l6.84,8.67s-3.73,38.95-12.55,53.68l5.71,15.58,12.71-4.52s10.33-40.67-1.19-63.4l7.7-7.66-8.09-7.38-11.13,5.03h0Z" fill="#f1f2f2"></path>
    <path d="M222.08,309.05l-5.96-16.27,.12-.2c8.34-13.93,12.16-50.24,12.46-53.27l-7.11-9.01,12.01-5.43,8.72,7.96-7.82,7.78c11.21,22.7,1.17,63.02,1.07,63.42l-.07,.26-13.43,4.78v-.02Zm-4.85-16.17l5.46,14.89,11.99-4.26c.85-3.5,9.61-41.43-1.21-62.79l-.16-.32,7.59-7.55-7.46-6.8-10.25,4.63,6.57,8.33-.02,.2c-.15,1.59-3.81,38.88-12.5,53.68h0Z" fill="#002346"></path>
  </g>
  <path d="M371.17,250.6l-7.8,6.41-25.55,83s18.82-3.42,37.63-27.36l28.22-33.35-32.5-28.7h0Z" fill="#f69074"></path>
  <path d="M337.09,340.69l25.84-84,8.25-6.77,33.18,29.34-.32,.37-28.22,33.35c-18.7,23.8-37.73,27.5-37.92,27.53l-.81,.18h0Zm26.71-83.38l-25.25,82.06c3.81-1,20.24-6.3,36.5-27l27.91-33-31.81-28.13-7.35,6.07Z" fill="#002346"></path>
  <path d="M397.7,245.99s-10-5.68-4.6-11.39c0,0,17.41-20.25,20.83-1.44,3.12,1.18,4.92,4.43,4.28,7.7,2.44,2.71,3.34,6.48,2.37,10,0,0,2.44,1,2.22,4.73-.25,3.28-2.17,6.19-5.08,7.72-5,2.74-14,6.49-11.49-3.18,0,0-5.13-1.3-4.27-7.29-2.65-1.24-4.32-3.92-4.26-6.85Z" fill="#f2b3c1"></path>
  <path d="M408.98,266.89c-.87,.04-1.72-.21-2.43-.71-1.25-1-1.56-2.9-.91-5.71-2.98-1.11-4.76-4.18-4.22-7.32-2.54-1.35-4.16-3.96-4.22-6.84-1.12-.69-5.61-3.63-6.16-7.34-.23-1.75,.41-3.49,1.7-4.69,.38-.44,9.69-11.18,16.27-9.39,2.68,.73,4.49,3.4,5.36,7.94,3.1,1.31,4.9,4.56,4.36,7.88,2.36,2.72,3.26,6.41,2.42,9.91,.75,.48,2.33,1.88,2.14,5-.27,3.44-2.28,6.51-5.33,8.13-2.87,1.55-6.37,3.14-8.98,3.14h0Zm-1.54-41.21c-5.91,0-13.88,9.17-14,9.27-1.08,.98-1.62,2.42-1.45,3.87,.54,3.68,5.86,6.73,5.91,6.76l.26,.15v.29c-.05,2.72,1.49,5.21,3.95,6.38l.36,.14-.06,.39c-.78,5.45,3.72,6.68,3.91,6.73l.48,.13-.12,.48c-.68,2.64-.53,4.36,.45,5.13,1.5,1.16,5.25,.25,10.32-2.51,2.74-1.46,4.56-4.21,4.81-7.31,.19-3.27-1.84-4.21-1.92-4.24l-.38-.17,.09-.41c.92-3.34,.08-6.92-2.23-9.51l-.19-.18v-.25c.64-3.03-1.04-6.07-3.94-7.15l-.28-.1v-.29c-.78-4.3-2.36-6.79-4.69-7.43-.42-.12-.85-.19-1.28-.2v.03h0Z" fill="#002346"></path>
  <rect x="395.46" y="239.05" width="20.69" height="1" transform="translate(-61.17 302.74) rotate(-38.26)" fill="#002346"></rect>
  <rect x="399.99" y="246.35" width="20.18" height="1" transform="translate(-66.46 291.68) rotate(-36.42)" fill="#002346"></rect>
  <rect x="404.87" y="255" width="17.08" height="1" transform="translate(-72.48 265.36) rotate(-32.88)" fill="#002346"></rect>
  <polygon points="372.03 214.35 379.72 222.04 391.48 216.41 389.99 206.65 372.03 214.35" fill="#f69074"></polygon>
  <path d="M366.9,139.1c-21.73,0-39.34,17.6-39.35,39.33,0,21.73,17.6,39.34,39.33,39.35,21.73,0,39.34-17.6,39.35-39.33v-.02c0-21.72-17.61-39.33-39.33-39.33h0Zm0,72.68c-18.42,0-33.35-14.93-33.35-33.35s14.93-33.35,33.35-33.35,33.35,14.93,33.35,33.35-14.93,33.35-33.35,33.35h0Z" fill="#002346"></path>
  <g opacity=".51">
    <circle cx="366.9" cy="178.43" r="33.35" fill="#fff"></circle>
  </g>
  <g>
    <path d="M84.1,553.06h0c3.95-2.51,9.18-1.35,11.69,2.6l29.25,45.96c2.51,3.95,1.35,9.18-2.6,11.69h0c-3.95,2.51-9.18,1.35-11.69-2.6l-29.25-45.96c-2.51-3.95-1.35-9.18,2.6-11.69Z" fill="#f1f2f2"></path>
    <path d="M117.91,615.14c-2.97,0-5.87-1.47-7.58-4.15l-29.25-45.96c-1.29-2.02-1.71-4.42-1.19-6.76s1.92-4.34,3.94-5.62h0c4.17-2.66,9.73-1.42,12.38,2.75l29.25,45.96c1.29,2.02,1.71,4.42,1.19,6.76s-1.92,4.34-3.94,5.62c-1.49,.95-3.15,1.4-4.8,1.4Zm-33.54-61.66c-1.8,1.14-3.04,2.92-3.5,5s-.09,4.21,1.06,6.01l29.25,45.96c2.36,3.71,7.29,4.8,11,2.45,1.8-1.14,3.04-2.92,3.5-5s.09-4.21-1.06-6.01l-29.25-45.96c-2.36-3.71-7.3-4.81-11-2.45h0Z" fill="#002346"></path>
  </g>
  <g>
    <path d="M358.45,593.03h0c1.84,4.3-.15,9.28-4.45,11.12l-50.09,21.44c-4.3,1.84-9.28-.15-11.12-4.45h0c-1.84-4.3,.15-9.28,4.45-11.12l50.09-21.44c4.3-1.84,9.28,.15,11.12,4.45Z" fill="#f1f2f2"></path>
    <path d="M300.58,626.78c-1.13,0-2.26-.22-3.34-.65-2.22-.89-3.97-2.59-4.91-4.8-1.95-4.55,.17-9.83,4.72-11.78l50.09-21.44c4.55-1.95,9.83,.17,11.78,4.72h0c1.95,4.55-.17,9.83-4.72,11.78l-50.09,21.44c-1.13,.49-2.33,.73-3.53,.73h0Zm50.08-38.38c-1.06,0-2.13,.22-3.13,.65l-50.09,21.44c-4.04,1.73-5.92,6.42-4.19,10.46,.84,1.96,2.39,3.47,4.36,4.26,1.98,.79,4.14,.77,6.1-.07l50.09-21.44c4.04-1.73,5.92-6.42,4.19-10.46h0c-.84-1.96-2.39-3.47-4.36-4.26-.96-.38-1.96-.58-2.96-.58h-.01Z" fill="#002346"></path>
  </g>
  <path d="M108.71,654.01c-1.64,1.7-4.16,.88-6.39-.48-2.66-1.67-4.85-3.98-6.39-6.71l-36.42-63.65,6.17-3.88,17.94-11.27,25.88,40.54-3.41,4.33,4.23,30.78c.51,5.85-.23,8.95-1.61,10.34Z" fill="#f69074"></path>
  <path d="M106.39,655.46c-1.55-.1-3.05-.62-4.33-1.51-2.72-1.71-4.98-4.08-6.56-6.88l-36.67-64.07,24.94-15.67,.27,.42,26.05,40.84-3.47,4.39,4.2,30.58c.45,5.58-.13,9.11-1.78,10.8-.69,.72-1.65,1.12-2.65,1.1Zm-46.21-72.13l36.19,63.24c1.49,2.66,3.63,4.9,6.21,6.53,2.64,1.61,4.58,1.8,5.77,.57h0c1.42-1.45,1.92-4.81,1.51-10l-4.26-31,3.29-4.17-25.43-39.79-23.28,14.62h0Z" fill="#002346"></path>
  <g>
    <path d="M108.71,654.01c-1.64,1.7-4.16,.88-6.39-.48-2.66-1.67-4.85-3.98-6.39-6.71l-36.42-63.65,6.17-3.88,43.03,74.72Z" fill="#002346"></path>
    <path d="M106.39,655.46c-1.11,0-2.53-.4-4.33-1.5-2.72-1.71-4.99-4.09-6.57-6.89l-36.66-64.06,7.02-4.41,43.48,75.5-.26,.27c-.57,.59-1.42,1.1-2.68,1.1h0Zm-46.21-72.13l36.18,63.23c1.49,2.66,3.65,4.91,6.22,6.54,2.44,1.49,4.29,1.76,5.49,.8l-42.57-73.92-5.32,3.35h0Z" fill="#0d2445"></path>
  </g>
  <path d="M306.59,624.48l15,35.39,70.12-44.47s-18-3.42-35.06,1.71l-5.13-11.86-44.93,19.23h0Z" fill="#f69074"></path>
  <path d="M321.35,660.61l-15.42-36.4,45.84-19.62,5.15,11.92c16.9-4.92,34.69-1.63,34.87-1.6l.38,.75-70.82,44.95h0Zm-14.11-35.87l14.57,34.39,68.51-43.44c-4.4-.65-19.36-2.35-33.54,1.9l-.43,.13-5.1-11.83-44.01,18.85Z" fill="#002346"></path>
  <g>
    <polygon points="321.58 659.87 324.14 665 394.26 619.68 391.7 615.4 321.58 659.87" fill="#002346"></polygon>
    <path d="M323.94,665.72l-3.01-6.03,.38-.24,70.55-44.75,3.07,5.14-70.99,45.89h0Zm-1.71-5.68l2.11,4.23,69.25-44.75-2.05-3.42-69.31,43.95h0Z" fill="#0d2445"></path>
  </g>
  <path d="M274.3,290.41l-.79-.61c6.06-7.85,11-34.14,11-34.41l1,.18c-.21,1.09-5,26.8-11.21,34.84Z" fill="#002346"></path>
  <path d="M431.5,249.52c-.72-10-3.45-24.13-3.47-24.27l1-.19c0,.14,2.76,14.29,3.49,24.39l-1.02,.07Z" fill="#002346"></path>
  <polygon points="221.7 193.98 218.11 210.07 233.5 225.46 244.62 217.77 249.68 207.88 240.34 195.54 221.7 193.98" fill="#f2b3c1"></polygon>
  <path d="M233.44,226.11l-15.88-15.88,3.75-16.78,19.29,1.61,9.67,12.76-5.27,10.29-11.56,8h0Zm-14.79-16.22l14.91,14.91,10.67-7.39,4.86-9.52-9-11.91-18-1.51-3.44,15.42Z" fill="#002346"></path>
  <path d="M231.62,203.44s3.59,10.91,13,14.33l5.07-9.89c-6.35,.59-12.72-.97-18.07-4.44Z" fill="#002346"></path>
  <path d="M247.83,122.85h0c17.36,0,31.43,14.07,31.43,31.43v22.23c0,17.36-14.07,31.43-31.43,31.43h0c-17.36,0-31.43-14.07-31.43-31.43v-22.23c0-17.36,14.07-31.43,31.43-31.43h0Z" fill="#f2b3c1"></path>
  <path d="M247.82,208.43c-17.61-.04-31.88-14.31-31.92-31.92v-22.23c-.31-17.63,13.73-32.18,31.36-32.49,17.63-.31,32.18,13.73,32.49,31.36v23.36c-.04,17.61-14.32,31.88-31.93,31.92Zm0-85.08c-17.06,.04-30.88,13.87-30.92,30.93v22.23c.31,17.08,14.4,30.68,31.48,30.37,16.65-.3,30.07-13.72,30.37-30.37v-22.23c-.04-17.07-13.86-30.89-30.93-30.93Z" fill="#002346"></path>
  <g>
    <path d="M271.98,154.3s4.96,1.43,8.56,4.02c2.28,1.65,5.52,.15,5.76-2.66,.83-9.76-4.06-19.99-4.06-19.99,0,0-5.15-13.68-29.93-14.53v-.03c.98-3.34-1.58-6.71-5.05-6.39-3.77,.35-7.9,1.53-11.52,4.41-2.05,1.64-5.08,1.06-6.36-1.23l-.06-.1c-1.04-1.86-3.24-2.7-5.24-2.01l-1.54,.53c-5.49,1.89-10.3,5.35-13.85,9.94h0s-14.54,18.81-1.71,35.92l13.52,1.12s14.05-4.27,14.37-18.52c0,0,17.94,20.58,37.1,9.51h.01Z" fill="#002346"></path>
    <path d="M220.56,163.81l-13.84-1.15-.13-.18c-12.91-17.22,1.57-36.33,1.71-36.53,3.62-4.68,8.49-8.17,14.08-10.1l1.54-.53c2.22-.77,4.68,.17,5.84,2.24l.06,.1c.53,.96,1.46,1.63,2.53,1.84,1.09,.21,2.21-.06,3.08-.75,3.24-2.58,7.21-4.1,11.79-4.52,1.75-.16,3.42,.53,4.54,1.9,1.04,1.27,1.46,2.92,1.17,4.53,24.31,1.05,29.56,14.26,29.77,14.83,.19,.38,4.92,10.43,4.09,20.21-.13,1.5-1.03,2.78-2.41,3.41s-2.92,.48-4.14-.4c-3.08-2.22-7.25-3.59-8.2-3.89-16.91,9.59-32.97-5.05-36.72-8.86-1.05,13.51-14.53,17.76-14.67,17.8l-.09,.03v.02Zm-13.31-2.11l13.19,1.09c1.17-.39,13.63-4.89,13.93-18.02l.03-1.29,.85,.97c.18,.2,17.89,20.13,36.47,9.41l.18-.11,.2,.06c.21,.06,5.09,1.48,8.71,4.1,.92,.67,2.09,.78,3.14,.3,1.05-.48,1.74-1.45,1.83-2.59,.81-9.5-3.96-19.64-4.01-19.74-.07-.17-5.38-13.42-29.5-14.25l-.64-.02,.18-.62c.44-1.49,.12-3.07-.84-4.23-.91-1.11-2.25-1.68-3.68-1.54-4.38,.4-8.17,1.85-11.26,4.31-1.1,.88-2.52,1.23-3.9,.95-1.36-.27-2.53-1.12-3.21-2.33l-.06-.1c-.92-1.64-2.87-2.39-4.64-1.78l-1.54,.53c-5.41,1.87-10.12,5.25-13.62,9.77-.14,.18-14.05,18.58-1.84,35.13h.03Z" fill="#0d2445"></path>
  </g>
  <g>
    <ellipse cx="212.98" cy="172.86" rx="8.95" ry="12.03" transform="translate(-35.9 57.53) rotate(-14.2)" fill="#f2b3c1"></ellipse>
    <path d="M214.26,185.23c-1.92,0-3.87-.75-5.64-2.19-2.28-1.86-3.98-4.65-4.8-7.87-1.7-6.7,1.03-13.19,6.08-14.47h0c2.47-.62,5.11,.07,7.44,1.96,2.28,1.86,3.98,4.65,4.8,7.87,1.7,6.7-1.03,13.19-6.08,14.47-.59,.15-1.19,.22-1.8,.22h0Zm-4.11-23.55h0c-4.51,1.14-6.92,7.09-5.36,13.25,.76,3.01,2.35,5.62,4.46,7.34,2.07,1.69,4.4,2.32,6.56,1.77,4.51-1.14,6.92-7.09,5.36-13.25-.76-3.01-2.35-5.62-4.46-7.34-2.07-1.69-4.4-2.32-6.56-1.77Z" fill="#002346"></path>
  </g>
  <polygon points="233.5 225.46 212.97 234.73 199.84 209.72 219.85 202.27 218.11 210.07 233.5 225.46" fill="#f69074"></polygon>
  <path d="M212.75,235.37l-13.66-25.92,21.41-8-1.85,8.44,15.71,15.71-21.61,9.77h0Zm-12.21-25.38l12.66,24.09,19.43-8.77-15.07-15.08,1.6-7.17-18.62,6.93h0Z" fill="#002346"></path>
  <path d="M233.5,225.46c4.48,3.49,8.51,7.52,12,12l8.52-14.57c-.44-1.75-1.01-3.47-1.71-5.13-1.06-2.53-2.4-4.94-4-7.17l-3.68,7.17-11.13,7.7Z" fill="#f69074"></path>
  <path d="M245.52,238.34l-.45-.6c-3.45-4.42-7.44-8.4-11.87-11.85l-.56-.42,11.59-8,4-7.78,.48,.66c1.64,2.26,3.01,4.7,4.08,7.27,.71,1.69,1.29,3.43,1.74,5.2l.05,.2-9.06,15.32h0Zm-11.18-12.85c4.09,3.26,7.81,6.96,11.08,11.05l8.07-13.72c-.43-1.66-.98-3.28-1.64-4.86-.94-2.24-2.12-4.39-3.5-6.39l-3.35,6.54-10.66,7.38h0Z" fill="#002346"></path>
  <polygon points="222.08 309.05 221.91 308.58 193.69 231.62 194.63 231.28 222.68 307.78 287.2 284.85 287.54 285.79 222.08 309.05" fill="#002346"></polygon>
  <path d="M315.59,245.99l-20.5,29.9-15.81,60.91s-1.3,8.35,3.84,14.34l59,2.56s-4.28-4.74-.86-16.48l29.93-78.43-55.6-12.8Z" fill="#fff"></path>
  <path d="M343.25,354.28l-1.17-.05-59.22-2.57-.14-.17c-5.22-6.09-4-14.39-4-14.74l15.85-61,.05-.08,20.71-30.21,.33,.08,56.15,13-30.14,79c-3.27,11.24,.72,15.93,.76,16l.82,.74h0Zm-59.91-3.6l57.75,2.51c-1.09-1.88-3-6.88-.36-16.08l29.74-77.94-54.69-12.62-20.28,29.58-15.79,60.82s-1.13,8,3.63,13.73h0Z" fill="#002346"></path>
  <path d="M300.02,269.89c-1.56,1.31-3.78,4,1.89,5.22,0,0,26.26,3,39.43-5.76,1.9-1.13,4.35-.51,5.48,1.38,.56,.94,.71,2.08,.42,3.14-.55,1.45-1.43,2.76-2.57,3.81,0,0,3.49,2.89,.89,8.71,0,0,4.24,7.54-4.32,11,0,0,2.57,4.27-4.27,8.55l-32.5,20.52-17.1-41.05s4.59-16,12.31-16.35c.27,0,.48,.23,.48,.5,0,.12-.05,.24-.14,.33h0Z" fill="#f2b3c1"></path>
  <path d="M304.24,327.11l-17.4-41.76,.05-.16c.19-.67,4.78-16.4,12.77-16.72,.55-.02,1.01,.42,1.03,.97,0,.3-.12,.59-.35,.79h0c-1.15,1-1.72,1.89-1.56,2.54s.79,1.26,3.24,1.8c.21,0,26.18,2.88,39-5.68,2.06-1.34,4.82-.75,6.15,1.32,.72,1.12,.91,2.5,.51,3.76-.51,1.38-1.32,2.63-2.36,3.66,.87,1,2.78,3.93,.75,8.69,1.02,2.04,1.24,4.38,.6,6.57-.86,2.17-2.61,3.87-4.81,4.67,.48,1.35,1.11,5.1-4.67,8.71l-32.95,20.84h0Zm-16.34-41.81l16.81,40.33,32-20.21c6.31-3.94,4.21-7.71,4.11-7.87l-.29-.5,.54-.22c2.47-1,4.06-2.42,4.71-4.26,.55-2.01,.32-4.16-.65-6l-.12-.21,.1-.23c2.42-5.42-.72-8.1-.75-8.13l-.43-.35,.39-.39c1.09-1,1.93-2.23,2.46-3.61,.46-1.39-.03-2.92-1.21-3.79-1.15-.93-2.78-.99-4-.15-13.16,8.76-38.68,6-39.76,5.84-2.45-.54-3.76-1.37-4-2.55s.39-2.29,1.89-3.55l.32,.38-.32-.38,.32,.38-.32-.38c-6.87,.29-11.29,14.16-11.8,15.85h0Z" fill="#002346"></path>
  <path d="M323.4,284.96l-.22-1c.15,0,15.39-3.44,21.24-6.79l.49,.87c-5.98,3.44-20.88,6.78-21.51,6.92h0Z" fill="#002346"></path>
  <path d="M325.99,294.35l-.28-.95c.16-.05,16.27-4.82,19.54-7.45l.62,.78c-3.42,2.76-19.21,7.43-19.88,7.62h0Z" fill="#002346"></path>
  <rect x="325.07" y="300.35" width="16.95" height="1" transform="translate(-95.22 166.98) rotate(-24.71)" fill="#002346"></rect>
  <polyline points="254.02 347.29 304.47 326.37 287.37 285.32 253.67 297.3" fill="#f69074"></polyline>
  <polygon points="254.21 347.75 253.83 346.83 303.82 326.1 287.09 285.95 253.84 297.77 253.51 296.83 287.65 284.69 305.13 326.64 304.66 326.83 254.21 347.75" fill="#002346"></polygon>
  <path d="M386.57,234.89l18.81,37.63c-1.65,1.44-3.54,2.6-5.57,3.42l-28.64-25.32s0-14,4.79-20.7c1.24-1.7,3.18-2.76,5.29-2.89l17.84-1.25c2.36-.16,4.4,1.62,4.56,3.98v.29h0c0,2.29-1.81,4.18-4.1,4.27l-12.99,.57h.01Z" fill="#f2b3c1"></path>
  <path d="M399.72,276.51l-29.05-25.68v-.23c0-.57,.06-14.19,4.89-21,1.32-1.83,3.4-2.97,5.65-3.1l17.88-1.22c1.32-.09,2.62,.38,3.59,1.28,1.93,1.79,2.04,4.81,.25,6.74-.86,.92-2.05,1.47-3.31,1.52l-12.23,.52,18.63,37.26-.26,.25c-1.69,1.49-3.63,2.69-5.72,3.53l-.32,.13h0Zm-28-26.13l28.22,25c1.75-.78,3.38-1.79,4.86-3l-19-38,13.78-.58c2.08-.08,3.7-1.83,3.62-3.91-.04-1-.47-1.94-1.2-2.62-.76-.72-1.79-1.09-2.84-1l-17.85,1.23c-1.96,.11-3.76,1.1-4.91,2.68-4.31,6.09-4.7,18.39-4.72,20.2h.04Z" fill="#002346"></path>
  <path d="M699.09,501.27s-1.61-36.86,2.43-55.09c.68-3.07,2.14-5.92,4.23-8.27,8.25-9.29,33.87-37.58,55.63-55.83,0,0-20.39-4.25-39.64,7.36v12.45l-4.25-9.91s-23.79,14.16-21.53,52.91l1.13,37.41,2,18.97h0Z" fill="#7cd295"></path>
  <path d="M698.58,501.32l-2-19-1.14-37.4c-2.25-38.63,21.53-53.25,21.77-53.39l.49-.29,3.51,8.19v-10.3l.24-.15c19.2-11.58,39.79-7.47,40-7.42l1,.21-.79,.66c-21.88,18.46-48.05,47.37-55.57,55.81-2.03,2.28-3.44,5.03-4.12,8-4,18-2.44,54.59-2.42,55l-.97,.08h0Zm18.68-108.59c-3.34,2.29-22.84,17.23-20.8,52.17l1.14,37.39,.69,6.65c-.12-12.44,.19-31.41,2.74-42.87,.7-3.16,2.2-6.08,4.34-8.5,7.41-8.34,33.06-36.73,54.85-55.18-4.37-.64-21.66-2.39-38,7.33v14.61l-4.96-11.6Z" fill="#002346"></path>
  <path d="M694.68,507.35v-3.35c.06-4.41-1.69-8.65-4.83-11.74l-56-55s26.92-3.4,39.73,7.32l.26,14.64,4.45-11.5s24,10.19,22,59.6l-5.61,.03h0Z" fill="#7cd295"></path>
  <path d="M694.17,507.89v-3.87c.05-4.27-1.64-8.37-4.68-11.37l-56.71-55.76,1-.12c1.11-.14,27.29-3.31,40.12,7.43l.18,.14,.22,12.32,3.71-9.6,.47,.2c.25,.1,24.35,10.9,22.27,60.08v.48l-6.58,.07h0Zm-59.2-70.24l55.24,54.24c3.24,3.19,5.04,7.56,5,12.1v2.9h4.61c1.73-44.23-17.91-56.65-21.21-58.42l-5.17,13.38-.3-17c-11.17-9.17-33.13-7.71-38.17-7.23v.03Z" fill="#002346"></path>
  <path d="M707.85,507.25l3.07-25c.22-1.78,.99-3.45,2.22-4.76,8-8.59,39.7-42.19,58.14-57.43,0,0-21.24-2-40.21,7.64l-.56,13.31-4.25-10.2s-20.67,11.57-21.24,52.08v24.4l2.83-.04Z" fill="#7cd295"></path>
  <path d="M704.54,507.77v-24.9c.57-40.32,21.28-52.41,21.49-52.53l.49-.28,3.6,8.64,.48-11.35,.26-.14c18.89-9.58,40.27-7.71,40.48-7.69l1.21,.11-.94,.77c-18.22,15.07-49.06,47.73-58.08,57.39-1.16,1.23-1.9,2.8-2.1,4.48l-3.11,25.48-3.78,.02h0Zm21.49-76.25c-3.09,2.07-20,15.11-20.51,51.36v23.89h1.87l3-24.61c.23-1.89,1.06-3.66,2.36-5.05,8.87-9.49,38.84-41.24,57.21-56.66-4.77-.24-22.47-.46-38.43,7.53l-.65,15.27-4.85-11.73h0Z" fill="#002346"></path>
  <g>
    <polygon points="666.95 565.68 702.63 574.12 738.43 565.68 738.43 562.18 667.12 562.18 666.95 565.68" fill="#002346"></polygon>
    <path d="M702.63,574.63l-36.2-8.56,.21-4.39h72.29v4.4l-36.3,8.56h0Zm-35.16-9.35l35.16,8.32,35.3-8.32v-2.6h-70.33l-.13,2.61h0Z" fill="#0d2445"></path>
  </g>
  <path d="M739.43,531.99c-.02,17.88-12.82,33.19-30.42,36.37h0c-20.09,3.6-39.29-9.76-42.89-29.85-2-11.13,1.22-22.57,8.72-31.03l40-.28,14.92-.11c6.23,6.8,9.68,15.68,9.67,24.9h0Z" fill="#f69074"></path>
  <path d="M702.47,569.43c-20.68-.01-37.44-16.79-37.42-37.48,0-9.14,3.36-17.97,9.42-24.81l.15-.16h.22l55.17-.39,.15,.16c13.96,15.26,12.9,38.95-2.37,52.91-5.23,4.79-11.72,7.99-18.7,9.23-2.19,.37-4.4,.55-6.62,.54h0Zm-27.38-61.46c-13.26,15.15-11.73,38.17,3.41,51.43,6.64,5.82,15.17,9.02,24.01,9.03,2.16,0,4.32-.19,6.45-.56,19.82-3.57,32.99-22.53,29.42-42.35-1.2-6.68-4.25-12.89-8.79-17.93l-54.5,.38h0Z" fill="#002346"></path>
  <g>
    <rect x="663.04" y="548.5" width="7.86" height="116.5" rx="2.47" ry="2.47" fill="#002346"></rect>
    <path d="M668.43,665.5h-2.92c-1.64,0-2.97-1.33-2.97-2.97v-111.56c0-1.64,1.33-2.97,2.97-2.97h2.92c1.64,0,2.97,1.33,2.97,2.97v111.56c0,1.64-1.33,2.97-2.97,2.97Zm-2.92-116.5c-1.09,0-1.97,.88-1.97,1.97v111.56c0,1.09,.88,1.97,1.97,1.97h2.92c1.09,0,1.97-.88,1.97-1.97v-111.56c0-1.09-.88-1.97-1.97-1.97h-2.92Z" fill="#0d2445"></path>
  </g>
  <g>
    <rect x="698.26" y="548.5" width="7.86" height="116.5" rx="2.47" ry="2.47" fill="#002346"></rect>
    <path d="M703.65,665.5h-2.92c-1.64,0-2.97-1.33-2.97-2.97v-111.56c0-1.64,1.33-2.97,2.97-2.97h2.92c1.64,0,2.97,1.33,2.97,2.97v111.56c0,1.64-1.33,2.97-2.97,2.97Zm-2.92-116.5c-1.09,0-1.97,.88-1.97,1.97v111.56c0,1.09,.88,1.97,1.97,1.97h2.92c1.09,0,1.97-.88,1.97-1.97v-111.56c0-1.09-.88-1.97-1.97-1.97h-2.92Z" fill="#0d2445"></path>
  </g>
  <g>
    <rect x="734.07" y="548.5" width="7.86" height="116.5" rx="2.47" ry="2.47" fill="#002346"></rect>
    <path d="M739.46,665.5h-2.92c-1.64,0-2.97-1.33-2.97-2.97v-111.56c0-1.64,1.33-2.97,2.97-2.97h2.92c1.64,0,2.97,1.33,2.97,2.97v111.56c0,1.64-1.33,2.97-2.97,2.97Zm-2.92-116.5c-1.09,0-1.97,.88-1.97,1.97v111.56c0,1.09,.88,1.97,1.97,1.97h2.92c1.09,0,1.97-.88,1.97-1.97v-111.56c0-1.09-.88-1.97-1.97-1.97h-2.92Z" fill="#0d2445"></path>
  </g>
  <g opacity=".2">
    <path d="M739.43,523.62c-.02,11.87-12.82,22.04-30.42,24.15,25.24-16.2,7-39.18,5.84-40.61l14.92-.07c6.22,4.51,9.67,10.41,9.66,16.53h0Z"></path>
  </g>
  <g>
    <ellipse cx="464.64" cy="123.23" rx="13" ry="10.5" fill="#002346"></ellipse>
    <path d="M464.64,134.23c-7.44,0-13.5-4.93-13.5-11s6.06-11,13.5-11,13.5,4.93,13.5,11-6.06,11-13.5,11Zm0-21c-6.89,0-12.5,4.49-12.5,10s5.61,10,12.5,10,12.5-4.49,12.5-10-5.61-10-12.5-10Z" fill="#002346"></path>
  </g>
</svg>
