<?xml version="1.0" standalone="no"?>
<!DOCTYPE svg PUBLIC "-//W3C//DTD SVG 20010904//EN"
 "http://www.w3.org/TR/2001/REC-SVG-20010904/DTD/svg10.dtd">
<svg version="1.0" xmlns="http://www.w3.org/2000/svg"
 width="500.000000pt" height="500.000000pt" viewBox="0 0 500.000000 500.000000"
 preserveAspectRatio="xMidYMid meet">

<g transform="translate(0.000000,500.000000) scale(0.100000,-0.100000)"
fill="#000000" stroke="none">
<path d="M3324 3196 c-3 -8 -4 -31 -2 -52 l3 -39 373 -3 372 -2 0 -375 0 -375
50 0 50 0 -2 428 -3 427 -418 3 c-351 2 -418 0 -423 -12z"/>
<path d="M1650 2518 l1 -263 36 40 c20 22 54 59 75 83 21 23 40 42 41 42 2 0
39 -45 83 -99 l79 -100 68 0 c37 -1 67 1 67 4 0 3 -49 63 -110 134 -60 71
-110 132 -110 136 0 4 44 61 98 127 143 175 136 158 59 158 l-65 0 -104 -127
-103 -128 -3 128 -3 127 -54 0 -55 0 0 -262z"/>
<path d="M2313 2518 c-56 -145 -105 -271 -109 -280 -5 -16 1 -18 49 -18 l55 0
30 83 c16 45 39 112 52 150 13 37 26 67 30 67 3 0 11 -15 18 -32 6 -18 30 -86
53 -150 l41 -118 55 0 c48 0 54 2 49 18 -64 170 -212 542 -216 542 -3 0 -52
-118 -107 -262z"/>
<path d="M2740 2730 l0 -50 90 0 c50 0 90 -1 90 -3 0 -2 -22 -58 -49 -125
l-50 -122 59 0 58 0 66 165 c36 91 66 170 66 175 0 6 -62 10 -165 10 l-165 0
0 -50z"/>
<path d="M3230 2550 l0 -230 -30 0 c-29 0 -30 -1 -30 -50 l0 -50 115 0 115 0
0 50 c0 49 -1 50 -30 50 l-30 0 0 230 0 230 -55 0 -55 0 0 -230z"/>
<path d="M832 2223 l3 -428 420 0 420 0 0 50 0 50 -372 3 -373 2 0 375 0 375
-50 0 -50 0 2 -427z"/>
<path d="M2760 2274 c-11 -25 -20 -48 -20 -50 0 -2 75 -3 168 -2 l167 3 3 48
3 47 -151 0 -151 0 -19 -46z"/>
</g>
</svg>
