<svg xmlns="http://www.w3.org/2000/svg" version="1.1" xmlns:xlink="http://www.w3.org/1999/xlink" xmlns:svgjs="http://svgjs.dev/svgjs" width="1500" height="939" viewBox="0 0 1500 939"><g transform="matrix(1,0,0,1,-0.9090909090909918,-1.5145161290323017)"><svg viewBox="0 0 396 248" data-background-color="#ffffff" preserveAspectRatio="xMidYMid meet" height="939" width="1500" xmlns="http://www.w3.org/2000/svg" xmlns:xlink="http://www.w3.org/1999/xlink"><g id="tight-bounds" transform="matrix(1,0,0,1,0.2400000000000091,0.4000000000000057)"><svg viewBox="0 0 395.52 247.2" height="247.2" width="395.52"><g><svg></svg></g><g><svg viewBox="0 0 395.52 247.2" height="247.2" width="395.52"><g transform="matrix(1,0,0,1,75.54432,88.10166970954357)"><svg viewBox="0 0 244.43135999999998 70.99666058091285" height="70.99666058091285" width="244.43135999999998"><g><svg viewBox="0 0 244.43135999999998 70.99666058091285" height="70.99666058091285" width="244.43135999999998"><g><svg viewBox="0 0 244.43135999999998 70.99666058091285" height="70.99666058091285" width="244.43135999999998"><g id="textblocktransform"><svg viewBox="0 0 244.43135999999998 70.99666058091285" height="70.99666058091285" width="244.43135999999998" id="textblock"><g><svg viewBox="0 0 244.43135999999998 70.99666058091285" height="70.99666058091285" width="244.43135999999998"><g transform="matrix(1,0,0,1,0,0)"><svg width="244.43135999999998" viewBox="1.7999999999999998 -28 96.39 28" height="70.99666058091285" data-palette-color="#0c0a0f"><path d="M18-24Q18.2-23.2 18.2-22L18.2-22Q18.2-20.85 18-20L18-20Q18.2-19.2 18.2-18L18.2-18Q18.2-16.85 18-16L18-16Q18.2-15.2 18.2-14L18.2-14Q18.2-12.85 18-12L18-12Q18.2-11.2 18.2-10L18.2-10Q18.2-8.85 18-8L18-8Q18.2-7.2 18.2-6L18.2-6Q18.2-4.85 18-4L18-4Q18.2-3.2 18.2-2L18.2-2Q18.2-0.85 18 0L18 0 14 0Q13.8-0.85 13.8-2L13.8-2Q13.8-3.2 14-4L14-4Q13.8-4.85 13.8-6L13.8-6Q13.8-7.2 14-8L14-8Q13.8-8.85 13.8-10L13.8-10Q13.8-11.2 14-12L14-12Q13.8-12.85 13.8-14L13.8-14Q13.8-15.2 14-16L14-16Q13.8-16.85 13.8-18L13.8-18Q13.8-19.2 14-20L14-20 12.5-20Q12.7-19.2 12.7-18L12.7-18Q12.7-16.85 12.5-16L12.5-16Q12.7-15.2 12.7-14L12.7-14Q12.7-12.85 12.5-12L12.5-12 11.5-12Q11.7-11.2 11.7-10L11.7-10Q11.7-8.85 11.5-8L11.5-8Q11.7-7.2 11.7-6L11.7-6Q11.7-4.85 11.5-4L11.5-4 8.5-4Q8.3-4.85 8.3-6L8.3-6Q8.3-7.2 8.5-8L8.5-8Q8.3-8.85 8.3-10L8.3-10Q8.3-11.2 8.5-12L8.5-12 7.5-12Q7.3-12.85 7.3-14L7.3-14Q7.3-15.2 7.5-16L7.5-16Q7.3-16.85 7.3-18L7.3-18Q7.3-19.2 7.5-20L7.5-20 6-20Q6.2-19.2 6.2-18L6.2-18Q6.2-16.85 6-16L6-16Q6.2-15.2 6.2-14L6.2-14Q6.2-12.85 6-12L6-12Q6.2-11.2 6.2-10L6.2-10Q6.2-8.85 6-8L6-8Q6.2-7.2 6.2-6L6.2-6Q6.2-4.85 6-4L6-4Q6.2-3.2 6.2-2L6.2-2Q6.2-0.85 6 0L6 0 2 0Q1.8-0.85 1.8-2L1.8-2Q1.8-3.2 2-4L2-4Q1.8-4.85 1.8-6L1.8-6Q1.8-7.2 2-8L2-8Q1.8-8.85 1.8-10L1.8-10Q1.8-11.2 2-12L2-12Q1.8-12.85 1.8-14L1.8-14Q1.8-15.2 2-16L2-16Q1.8-16.85 1.8-18L1.8-18Q1.8-19.2 2-20L2-20Q1.8-20.85 1.8-22L1.8-22Q1.8-23.2 2-24L2-24Q1.8-24.85 1.8-26L1.8-26Q1.8-27.2 2-28L2-28 7-28Q7.2-27.2 7.2-26L7.2-26Q7.2-24.85 7-24L7-24 8.5-24Q8.7-23.2 8.7-22L8.7-22Q8.7-20.85 8.5-20L8.5-20 9.25-20Q9.45-19.2 9.45-18L9.45-18Q9.45-16.85 9.25-16L9.25-16 10.75-16Q10.55-16.85 10.55-18L10.55-18Q10.55-19.2 10.75-20L10.75-20 11.5-20Q11.3-20.85 11.3-22L11.3-22Q11.3-23.2 11.5-24L11.5-24 13-24Q12.8-24.85 12.8-26L12.8-26Q12.8-27.2 13-28L13-28 18-28Q18.2-27.2 18.2-26L18.2-26Q18.2-24.85 18-24L18-24ZM36-12L28-12Q28.2-11.2 28.2-10L28.2-10Q28.2-8.85 28-8L28-8Q28.2-7.2 28.2-6L28.2-6Q28.2-4.85 28-4L28-4 36-4Q36.2-3.2 36.2-2L36.2-2Q36.2-0.85 36 0L36 0 24 0Q23.8-0.85 23.8-2L23.8-2Q23.8-3.2 24-4L24-4Q23.8-4.85 23.8-6L23.8-6Q23.8-7.2 24-8L24-8Q23.8-8.85 23.8-10L23.8-10Q23.8-11.2 24-12L24-12Q23.8-12.85 23.8-14L23.8-14Q23.8-15.2 24-16L24-16Q23.8-16.85 23.8-18L23.8-18Q23.8-19.2 24-20L24-20Q23.8-20.85 23.8-22L23.8-22Q23.8-23.2 24-24L24-24Q23.8-24.85 23.8-26L23.8-26Q23.8-27.2 24-28L24-28 36-28Q36.2-27.2 36.2-26L36.2-26Q36.2-24.85 36-24L36-24 28-24Q28.2-23.2 28.2-22L28.2-22Q28.2-20.85 28-20L28-20Q28.2-19.2 28.2-18L28.2-18Q28.2-16.85 28-16L28-16 36-16Q36.2-15.2 36.2-14L36.2-14Q36.2-12.85 36-12L36-12ZM56.5-4L58-4Q58.2-3.2 58.2-2L58.2-2Q58.2-0.85 58 0L58 0 54 0Q53.8-0.85 53.8-2L53.8-2Q53.8-3.2 54-4L54-4 52.5-4Q52.3-4.85 52.3-6L52.3-6Q52.3-7.2 52.5-8L52.5-8 51-8Q50.8-8.85 50.8-10L50.8-10Q50.8-11.2 51-12L51-12 46-12Q46.2-11.2 46.2-10L46.2-10Q46.2-8.85 46-8L46-8Q46.2-7.2 46.2-6L46.2-6Q46.2-4.85 46-4L46-4Q46.2-3.2 46.2-2L46.2-2Q46.2-0.85 46 0L46 0 42 0Q41.8-0.85 41.8-2L41.8-2Q41.8-3.2 42-4L42-4Q41.8-4.85 41.8-6L41.8-6Q41.8-7.2 42-8L42-8Q41.8-8.85 41.8-10L41.8-10Q41.8-11.2 42-12L42-12Q41.8-12.85 41.8-14L41.8-14Q41.8-15.2 42-16L42-16Q41.8-16.85 41.8-18L41.8-18Q41.8-19.2 42-20L42-20Q41.8-20.85 41.8-22L41.8-22Q41.8-23.2 42-24L42-24Q41.8-24.85 41.8-26L41.8-26Q41.8-27.2 42-28L42-28 56-28Q56.2-27.2 56.2-26L56.2-26Q56.2-24.85 56-24L56-24 58-24Q58.2-23.2 58.2-22L58.2-22Q58.2-20.85 58-20L58-20 57-20Q57.2-19.2 57.2-18L57.2-18Q57.2-16.85 57-16L57-16 54-16Q54.2-15.2 54.2-14L54.2-14Q54.2-12.85 54-12L54-12 55-12Q55.2-11.2 55.2-10L55.2-10Q55.2-8.85 55-8L55-8 56.5-8Q56.7-7.2 56.7-6L56.7-6Q56.7-4.85 56.5-4L56.5-4ZM53-16Q52.8-16.85 52.8-18L52.8-18Q52.8-19.2 53-20L53-20Q52.8-20.85 52.8-22L52.8-22Q52.8-23.2 53-24L53-24 46-24Q46.2-23.2 46.2-22L46.2-22Q46.2-20.85 46-20L46-20Q46.2-19.2 46.2-18L46.2-18Q46.2-16.85 46-16L46-16 53-16ZM71.99-4L74.99-4Q75.19-3.2 75.19-2L75.19-2Q75.19-0.85 74.99 0L74.99 0 64.99 0Q64.79-0.85 64.79-2L64.79-2Q64.79-3.2 64.99-4L64.99-4 67.99-4Q67.79-4.85 67.79-6L67.79-6Q67.79-7.2 67.99-8L67.99-8Q67.79-8.85 67.79-10L67.79-10Q67.79-11.2 67.99-12L67.99-12Q67.79-12.85 67.79-14L67.79-14Q67.79-15.2 67.99-16L67.99-16Q67.79-16.85 67.79-18L67.79-18Q67.79-19.2 67.99-20L67.99-20Q67.79-20.85 67.79-22L67.79-22Q67.79-23.2 67.99-24L67.99-24 64.99-24Q64.79-24.85 64.79-26L64.79-26Q64.79-27.2 64.99-28L64.99-28 74.99-28Q75.19-27.2 75.19-26L75.19-26Q75.19-24.85 74.99-24L74.99-24 71.99-24Q72.19-23.2 72.19-22L72.19-22Q72.19-20.85 71.99-20L71.99-20Q72.19-19.2 72.19-18L72.19-18Q72.19-16.85 71.99-16L71.99-16Q72.19-15.2 72.19-14L72.19-14Q72.19-12.85 71.99-12L71.99-12Q72.19-11.2 72.19-10L72.19-10Q72.19-8.85 71.99-8L71.99-8Q72.19-7.2 72.19-6L72.19-6Q72.19-4.85 71.99-4L71.99-4ZM98.19-26Q98.19-24.85 97.99-24L97.99-24 91.99-24Q92.19-23.2 92.19-22L92.19-22Q92.19-20.85 91.99-20L91.99-20Q92.19-19.2 92.19-18L92.19-18Q92.19-16.85 91.99-16L91.99-16Q92.19-15.2 92.19-14L92.19-14Q92.19-12.85 91.99-12L91.99-12Q92.19-11.2 92.19-10L92.19-10Q92.19-8.85 91.99-8L91.99-8Q92.19-7.2 92.19-6L92.19-6Q92.19-4.85 91.99-4L91.99-4Q92.19-3.2 92.19-2L92.19-2Q92.19-0.85 91.99 0L91.99 0 87.99 0Q87.79-0.85 87.79-2L87.79-2Q87.79-3.2 87.99-4L87.99-4Q87.79-4.85 87.79-6L87.79-6Q87.79-7.2 87.99-8L87.99-8Q87.79-8.85 87.79-10L87.79-10Q87.79-11.2 87.99-12L87.99-12Q87.79-12.85 87.79-14L87.79-14Q87.79-15.2 87.99-16L87.99-16Q87.79-16.85 87.79-18L87.79-18Q87.79-19.2 87.99-20L87.99-20Q87.79-20.85 87.79-22L87.79-22Q87.79-23.2 87.99-24L87.99-24 81.99-24Q81.79-24.85 81.79-26L81.79-26Q81.79-27.2 81.99-28L81.99-28 97.99-28Q98.19-27.2 98.19-26L98.19-26Z" opacity="1" transform="matrix(1,0,0,1,0,0)" fill="#0c0a0f" class="wordmark-text-0" data-fill-palette-color="primary" id="text-0"></path></svg></g></svg></g></svg></g></svg></g></svg></g></svg></g><path d="M206.487 82.102L206.487 25.362 10.012 25.362 10.012 221.838 206.487 221.838 206.487 165.098 200.085 165.098 200.085 215.435 16.415 215.435 16.415 31.765 200.085 31.765 200.085 82.102Z" fill="#0c0a0f" stroke="transparent" data-fill-palette-color="tertiary"></path></svg></g><defs></defs></svg><rect width="395.52" height="247.2" fill="none" stroke="none" visibility="hidden"></rect></g></svg></g></svg>