<?xml version="1.0" standalone="no"?>
<!DOCTYPE svg PUBLIC "-//W3C//DTD SVG 20010904//EN"
 "http://www.w3.org/TR/2001/REC-SVG-20010904/DTD/svg10.dtd">
<svg version="1.0" xmlns="http://www.w3.org/2000/svg"
 width="500.000000pt" height="500.000000pt" viewBox="0 0 500.000000 500.000000"
 preserveAspectRatio="xMidYMid meet">

<g transform="translate(0.000000,500.000000) scale(0.100000,-0.100000)"
fill="#000000" stroke="none">
<path d="M2820 3055 l0 -75 110 0 110 0 0 75 0 75 -110 0 -110 0 0 -75z"/>
<path d="M3098 2983 l-3 -98 -27 -3 c-22 -3 -28 1 -28 16 0 18 -9 20 -117 24
-139 6 -189 -9 -223 -64 l-20 -33 0 48 0 47 -110 0 -110 0 0 -460 0 -460 110
0 110 0 0 355 c0 403 -8 369 91 384 l49 8 0 -373 0 -374 110 0 110 0 0 361 0
360 28 -3 27 -3 5 -325 c4 -245 8 -331 18 -348 26 -45 97 -61 206 -46 39 6 46
10 46 29 0 22 2 21 34 -11 31 -31 40 -34 91 -34 51 0 60 3 91 34 31 31 34 39
34 91 0 53 -3 60 -36 91 -31 30 -42 34 -91 34 -49 0 -59 -4 -89 -34 -38 -38
-57 -48 -79 -40 -13 5 -15 46 -15 285 l0 279 30 0 30 0 0 80 0 80 -30 0 -30 0
0 100 0 100 -105 0 -104 0 -3 -97z"/>
<path d="M1335 2916 c-31 -14 -69 -50 -78 -76 -3 -8 -6 6 -6 33 l-1 47 -110 0
-110 0 0 -460 0 -460 110 0 110 0 0 350 c0 382 4 410 53 410 47 0 47 -3 47
-392 l0 -368 110 0 110 0 0 345 c0 380 4 415 53 415 51 0 52 -6 55 -397 l3
-363 110 0 110 0 -3 393 c-3 378 -4 394 -25 439 -49 106 -201 132 -285 48
l-38 -37 -16 24 c-34 52 -136 77 -199 49z"/>
<path d="M2097 2920 c-53 -14 -88 -34 -125 -71 -56 -57 -62 -94 -62 -370 0
-272 7 -324 51 -394 43 -68 97 -90 219 -90 80 0 103 4 143 24 81 40 126 138
127 274 l0 57 -110 0 -110 0 0 -76 c0 -87 -11 -114 -45 -114 -44 0 -55 32 -55
162 l0 118 161 0 161 0 -4 163 c-3 141 -6 167 -25 202 -27 51 -58 80 -107 100
-48 20 -166 28 -219 15z m123 -186 c6 -14 10 -61 10 -105 l0 -79 -50 0 -50 0
0 86 c0 101 9 124 51 124 22 0 32 -6 39 -26z"/>
</g>
</svg>
