<?xml version="1.0" encoding="utf-8"?>
<!-- Uploaded to: SVG Repo, www.svgrepo.com, Generator: SVG Repo Mixer Tools -->
<svg width="800px" height="800px" viewBox="0 0 1024 1024" class="icon"  version="1.1" xmlns="http://www.w3.org/2000/svg"><path d="M277.333333 640h469.333334v256H277.333333z" fill="#BF360C" /><path d="M213.333333 554.666667m-85.333333 0a85.333333 85.333333 0 1 0 170.666667 0 85.333333 85.333333 0 1 0-170.666667 0Z" fill="#FFA726" /><path d="M810.666667 554.666667m-85.333334 0a85.333333 85.333333 0 1 0 170.666667 0 85.333333 85.333333 0 1 0-170.666667 0Z" fill="#FFA726" /><path d="M832 405.333333c0-270.933333-640-177.066667-640 0v213.333334c0 177.066667 142.933333 320 320 320s320-142.933333 320-320V405.333333z" fill="#FFB74D" /><path d="M640 554.666667m-42.666667 0a42.666667 42.666667 0 1 0 85.333334 0 42.666667 42.666667 0 1 0-85.333334 0Z" fill="#784719" /><path d="M384 554.666667m-42.666667 0a42.666667 42.666667 0 1 0 85.333334 0 42.666667 42.666667 0 1 0-85.333334 0Z" fill="#784719" /><path d="M512 42.666667C330.666667 42.666667 64 166.4 64 759.466667L277.333333 896V512l358.4-209.066667L746.666667 448v448l213.333333-174.933333c0-119.466667-19.2-618.666667-328.533333-618.666667L601.6 42.666667H512z" fill="#FF5722" /><path d="M960 512c-12.8 0-21.333333 8.533333-21.333333 21.333333v-149.333333c0-187.733333-153.6-341.333333-341.333334-341.333333h-192c-12.8 0-21.333333 8.533333-21.333333 21.333333s8.533333 21.333333 21.333333 21.333333h192c164.266667 0 298.666667 134.4 298.666667 298.666667v213.333333c0 12.8 8.533333 21.333333 21.333333 21.333334s21.333333-8.533333 21.333334-21.333334v42.666667c0 83.2-66.133333 149.333333-149.333334 149.333333H512c-12.8 0-21.333333 8.533333-21.333333 21.333334s8.533333 21.333333 21.333333 21.333333h277.333333c106.666667 0 192-85.333333 192-192v-106.666667c0-12.8-8.533333-21.333333-21.333333-21.333333z" fill="#757575" /><path d="M960 469.333333h-21.333333c-23.466667 0-42.666667 19.2-42.666667 42.666667v85.333333c0 23.466667 19.2 42.666667 42.666667 42.666667h21.333333c23.466667 0 42.666667-19.2 42.666667-42.666667v-85.333333c0-23.466667-19.2-42.666667-42.666667-42.666667z" fill="#37474F" /><path d="M512 810.666667m-42.666667 0a42.666667 42.666667 0 1 0 85.333334 0 42.666667 42.666667 0 1 0-85.333334 0Z" fill="#37474F" /></svg>