<?xml version="1.0" encoding="utf-8"?>
<!-- Uploaded to: SVG Repo, www.svgrepo.com, Generator: SVG Repo Mixer Tools -->
<svg width="800px" height="800px" viewBox="0 0 1024 1024" class="icon"  version="1.1" xmlns="http://www.w3.org/2000/svg"><path d="M917.333333 768H618.666667V298.666667h226.133333c19.2 0 34.133333 12.8 40.533333 29.866666L960 554.666667v170.666666c0 23.466667-19.2 42.666667-42.666667 42.666667z" fill="#8BC34A" /><path d="M618.666667 768H106.666667c-23.466667 0-42.666667-19.2-42.666667-42.666667V192c0-23.466667 19.2-42.666667 42.666667-42.666667h469.333333c23.466667 0 42.666667 19.2 42.666667 42.666667v576z" fill="#388E3C" /><path d="M789.333333 768m-106.666666 0a106.666667 106.666667 0 1 0 213.333333 0 106.666667 106.666667 0 1 0-213.333333 0Z" fill="#37474F" /><path d="M277.333333 768m-106.666666 0a106.666667 106.666667 0 1 0 213.333333 0 106.666667 106.666667 0 1 0-213.333333 0Z" fill="#37474F" /><path d="M789.333333 768m-42.666666 0a42.666667 42.666667 0 1 0 85.333333 0 42.666667 42.666667 0 1 0-85.333333 0Z" fill="#78909C" /><path d="M277.333333 768m-42.666666 0a42.666667 42.666667 0 1 0 85.333333 0 42.666667 42.666667 0 1 0-85.333333 0Z" fill="#78909C" /><path d="M874.666667 533.333333h-149.333334c-12.8 0-21.333333-8.533333-21.333333-21.333333v-149.333333c0-12.8 8.533333-21.333333 21.333333-21.333334h113.066667c8.533333 0 17.066667 6.4 19.2 14.933334l36.266667 110.933333c0 2.133333 2.133333 4.266667 2.133333 6.4V512c0 12.8-8.533333 21.333333-21.333333 21.333333z" fill="#37474F" /><path d="M465.066667 294.4l-168.533334 168.533333-78.933333-81.066666L170.666667 428.8l125.866666 125.866667L512 339.2z" fill="#DCEDC8" /></svg>